;Type: Drill PTH
;Generated by EasyEDA v1.3.13.eb2668, 2021-11-16 08:35:19
;Gerber Generator version 0.3
M48
INCH,LZ,00.0000
;Hole size 1 = 0.0120 INCH
T01C0.0120
;Hole size 2 = 0.0630 INCH
T02C0.0630
%
G05
G90
T01
X028315Y-017977
X001150Y-017977
X001150Y-002859
X001150Y-015457
X033748Y-017977
X033748Y-015457
X017449Y-015457
X006583Y-017977
X022882Y-017977
X028315Y-012938
X012016Y-017977
X006583Y-005379
X006583Y-020497
X001150Y-020497
X039181Y-017977
X017449Y-002859
X012016Y-002859
X006583Y-002859
X028315Y-005379
X039181Y-015457
X028315Y-000339
X022882Y-015457
X039181Y-012938
X033748Y-033095
X022882Y-000339
X012016Y-005379
X017449Y-005379
X001150Y-005379
X044615Y-000339
X022882Y-002859
X017449Y-012938
X022882Y-020497
X022882Y-012938
X006583Y004700
X012016Y-000339
X012016Y004700
X033748Y-005379
X033748Y-002859
X039181Y-005379
X006583Y-000339
X001150Y-000339
X022882Y-033095
X017449Y-033095
X028315Y-033095
X039181Y-002859
X028315Y-002859
X044615Y-017977
X012016Y-033095
X044615Y-015457
X012016Y-015457
X017449Y-020497
X012016Y-020497
X039181Y-033095
X044615Y-002859
X022882Y-005379
X006583Y-015457
X017449Y-017977
X028315Y-015457
X033748Y-012938
X044615Y-012938
X039181Y-000339
X033748Y-000339
X017449Y-000339
X044550Y002200
X039181Y002180
X044615Y-010418
X044615Y-005379
X001150Y-012938
X022882Y002180
X028315Y002180
X017449Y-023017
X022882Y-023017
X006583Y002180
X028315Y-023017
X001150Y-007898
X006583Y-012938
X006583Y-007898
X012016Y-007898
X012016Y-012938
X012016Y-030576
X012016Y-025536
X033748Y-023017
X039181Y-023017
X017449Y-030576
X033748Y002180
X012016Y002180
X044615Y-023017
X017449Y002180
X033748Y-020497
X039181Y-020497
X044615Y-020497
X017449Y004700
X001150Y-023017
X006583Y-023017
X028315Y-020497
X017449Y-025536
X022882Y-025536
X012016Y-023017
X028315Y-025536
X033748Y-025536
X039181Y-025536
X044615Y-025536
X006583Y-028056
X028315Y004700
X033748Y004700
X017449Y-007898
X022882Y-007898
X039181Y004700
X012016Y-028056
X017449Y-028056
X022882Y-028056
X028315Y-028056
X033748Y-028056
X039181Y-028056
X022882Y-030576
X028315Y-030576
X033748Y-030576
X039181Y-030576
X044615Y-030576
X028315Y-007898
X022882Y004700
X033748Y-007898
X044615Y-028056
X006583Y-025536
X006583Y-030576
X039181Y-007898
X044615Y-007898
X001150Y-010418
X006583Y-010418
X012016Y-010418
X017449Y-010418
X022882Y-010418
X028315Y-010418
X033748Y-010418
X039181Y-010418
X007000Y005390
X034148Y-012248
X017849Y-007209
X028715Y-007209
X023282Y-007209
X028715Y-002170
X039581Y-027367
X045015Y-014768
X028715Y-017288
X001550Y-017288
X028715Y-012248
X006983Y-017288
X012416Y-017288
X034148Y-007209
X017849Y-017288
X023282Y-017288
X012416Y000350
X017849Y000350
X023282Y000350
X028715Y000350
X001550Y002870
X006983Y002870
X012416Y002870
X017849Y002870
X023282Y002870
X039581Y-012248
X023282Y-012248
X039581Y-007209
X045015Y-007209
X034148Y-002170
X028715Y002870
X034148Y002870
X039581Y002870
X001550Y000350
X001550Y-002170
X006983Y-002170
X001550Y-029886
X012416Y-032406
X006983Y005389
X006983Y000350
X017849Y-032406
X023282Y-032406
X028715Y-032406
X034148Y-032406
X023282Y-022327
X045015Y-012248
X006983Y-009729
X001550Y-009729
X017849Y-009729
X012416Y-009729
X006983Y-019807
X023282Y005389
X001550Y-019807
X012416Y-019807
X034148Y-014768
X039581Y-014768
X045015Y-017288
X034148Y-017288
X028715Y-009729
X039581Y-017288
X023282Y-009729
X012416Y005389
X001550Y-004689
X039581Y-002170
X045015Y-002170
X001550Y-014768
X006983Y-014768
X012416Y-029886
X017849Y-029886
X034148Y-009729
X039581Y-009729
X028715Y-014768
X034148Y000350
X039581Y000350
X045015Y000350
X006983Y-004689
X012416Y-004689
X017849Y-004689
X023282Y-004689
X006983Y-029886
X023282Y-029886
X017849Y-024847
X012416Y-024847
X028715Y-024847
X012416Y-014768
X039581Y-022327
X028715Y-022327
X034148Y-022327
X006983Y-024847
X045015Y-022327
X001550Y-024847
X034148Y-024847
X039581Y-024847
X006983Y-007209
X028715Y005389
X006983Y-022327
X012416Y-012248
X017849Y-019807
X023282Y-019807
X012416Y-007209
X017849Y-012248
X034148Y005389
X045015Y-009729
X039581Y005389
X034148Y-019807
X017849Y005389
X039581Y-019807
X045015Y-019807
X001550Y-022327
X028715Y-004689
X006983Y-032406
X012416Y-002170
X017849Y-014768
X023282Y-014768
X028715Y-029886
X034148Y-029886
X001550Y-012248
X006983Y-012248
X028715Y-019807
X017849Y-002170
X023282Y-002170
X023282Y-024847
X001550Y-027367
X006983Y-027367
X034148Y-004689
X039581Y-004689
X045015Y-004689
X001550Y-007209
X012416Y-027367
X017849Y-027367
X023282Y-027367
X028715Y-027367
X039581Y-029886
X012416Y-022327
X034148Y-027367
X017849Y-022327
X000200Y-001600
X000200Y-004150
X000200Y-006650
X000200Y-009200
X046050Y-001600
X046050Y-004150
X046050Y-006650
X046050Y-009200
X000200Y-011700
X043665Y-021779
X038231Y-021779
X005633Y-024298
X011066Y-024298
X016499Y-024298
X021932Y-024298
X038231Y-011700
X011066Y-016739
X043665Y-011700
X032798Y-011700
X000200Y-014220
X005633Y-014220
X011066Y-014220
X016499Y-014220
X021932Y-014220
X027365Y-014220
X016499Y-016739
X032798Y-014220
X038231Y-014220
X021932Y-016739
X027365Y-016739
X043665Y-014220
X000200Y-016739
X032798Y-016739
X038231Y-016739
X005633Y-016739
X027365Y-024298
X032798Y-024298
X038231Y-024298
X043665Y-024298
X005633Y-019259
X011066Y-019259
X016499Y-019259
X005633Y-011700
X016499Y-011700
X043665Y-016739
X000200Y-019259
X011066Y-011700
X021932Y-019259
X027365Y-019259
X032798Y-019259
X038231Y-019259
X043665Y-019259
X011066Y-021779
X016499Y-021779
X005633Y-021779
X021932Y-021779
X021932Y-011700
X027365Y-021779
X032798Y-021779
X027365Y-011700
X040531Y-011000
X040531Y-013520
X045965Y-016039
X013366Y-021079
X013366Y-013520
X007933Y-016039
X007933Y-018559
X013366Y-023598
X013366Y-016039
X013366Y-018559
X040531Y-016039
X045965Y-018559
X045965Y-021079
X029665Y-011000
X018799Y-011000
X018799Y-013520
X018799Y-016039
X018799Y-018559
X018799Y-021079
X018799Y-023598
X024232Y-011000
X024232Y-013520
X007933Y-021079
X007933Y-023598
X013366Y-011000
X029665Y-013520
X029665Y-016039
X029665Y-018559
X029665Y-021079
X024232Y-016039
X024232Y-023598
X024232Y-018559
X024232Y-021079
X007933Y-013520
X029665Y-023598
X040531Y-018559
X040531Y-021079
X040531Y-023598
X045965Y-011000
X045965Y-013520
X035098Y-011000
X002500Y-011000
X002500Y-013520
X002500Y-016039
X002500Y-018559
X002500Y-021079
X035098Y-013520
X002500Y-023598
X007933Y-011000
X035098Y-016039
X035098Y-018559
X035098Y-021079
X035098Y-023598
X000050Y-022925
X000050Y-021925
X000050Y-023925
X046250Y-022200
X044615Y-023017
X000000Y000000
X005483Y004994
X024449Y-030281
X043465Y-025242
X013583Y-032801
X000000Y-010124
X008150Y-010124
X010866Y-017683
X021732Y-005084
X010866Y-032801
X013583Y-017683
X024449Y-012643
X005433Y-010124
X027165Y-012643
X002717Y-010124
X013583Y002525
X024449Y-005084
X027165Y-005084
X029882Y-005034
X029882Y-012643
X016299Y-032801
X019016Y-032801
X032598Y-005034
X035315Y-005034
X038031Y-005034
X040748Y-005084
X032598Y-012643
X010866Y-010124
X013583Y-010124
X021732Y-032801
X024449Y-032801
X043465Y-027761
X027165Y-032801
X016299Y-010124
X029882Y-032801
X032598Y-032801
X019016Y-010124
X035315Y-032801
X038031Y-032801
X021732Y-010124
X016299Y-017683
X010866Y002525
X019016Y-017683
X032598Y-002565
X035315Y-002565
X029882Y002525
X032598Y002525
X029882Y-002565
X035315Y002525
X024449Y-010124
X035315Y-012643
X002717Y-030281
X005433Y-030281
X008150Y-030281
X010866Y-030281
X013583Y-030281
X040748Y-017683
X038031Y-012643
X040748Y-012643
X043465Y-012643
X021732Y-017683
X038031Y002525
X027165Y002475
X040748Y002525
X002717Y-007604
X038031Y-002565
X040748Y-002565
X043465Y002475
X046181Y-012643
X008150Y-017683
X000000Y-007604
X005433Y-007604
X043465Y-017683
X046181Y-017683
X016299Y-030281
X008150Y-007604
X000000Y-015163
X027165Y-010124
X000000Y-020202
X043465Y-005084
X029882Y-010124
X002717Y-015163
X005433Y-015163
X040748Y-025242
X008150Y-015163
X000000Y-000045
X010866Y-015163
X032598Y-010124
X002717Y-000045
X005433Y-000045
X013583Y-015163
X002717Y-020202
X005433Y-020202
X038031Y-017683
X008150Y-020202
X035315Y-010124
X008150Y000005
X010866Y000005
X038031Y-010124
X010866Y-007604
X002717Y-025242
X013583Y-007604
X016299Y-015163
X016299Y-007604
X010866Y-020202
X002717Y-027761
X005433Y-027761
X019016Y-030281
X040748Y-027761
X021732Y-030281
X008150Y-027761
X046181Y-005084
X010866Y-027761
X005433Y-025242
X043465Y-002565
X019016Y-007604
X021732Y-007604
X019016Y-015163
X021732Y-015163
X008150Y-025242
X005433Y002475
X008150Y002525
X046181Y-002565
X016299Y002525
X013583Y000005
X024449Y-007604
X019016Y-012643
X035315Y-017683
X002717Y-005084
X019016Y002475
X016299Y000005
X019016Y-000045
X021732Y-012643
X005433Y-017683
X021732Y002475
X024449Y002475
X038031Y005044
X040748Y-020202
X040748Y004994
X021732Y-000045
X000000Y-005084
X008150Y-005034
X005433Y-005084
X010866Y-005034
X013583Y-005034
X016299Y-005034
X027165Y-007604
X029882Y-007604
X005433Y004994
X002717Y002475
X019016Y-005084
X043465Y-020202
X013583Y-020202
X016299Y-027761
X046181Y-020202
X016299Y-020202
X040748Y-010124
X019016Y-020202
X043465Y-010124
X046181Y-010124
X000000Y-012643
X021732Y-020202
X024449Y-020202
X027165Y-020202
X029882Y-020202
X002717Y-012643
X005433Y-012643
X008150Y-012643
X010866Y-012643
X013583Y-012643
X029882Y-017683
X032598Y-017683
X016299Y-012643
X024449Y-015163
X027165Y-015163
X029882Y-015163
X032598Y-015163
X035315Y-015163
X002717Y-017683
X038031Y-015163
X019016Y-027761
X024449Y-017683
X040748Y-015163
X013583Y-027761
X043465Y-015163
X046181Y-015163
X027165Y-017683
X000000Y-017683
X010866Y005044
X038031Y-025242
X013583Y005044
X032598Y-030281
X035315Y-030281
X038031Y-030281
X040748Y-030281
X043465Y-030281
X027165Y-030281
X029882Y-030281
X021732Y-027761
X013583Y-002565
X016299Y-002565
X019016Y004994
X029882Y-027761
X016299Y005044
X010866Y-025242
X013583Y-025242
X021732Y004994
X008150Y-032801
X016299Y-025242
X008150Y005044
X024449Y004994
X019016Y-025242
X024449Y-000045
X027165Y-000045
X032598Y-020202
X029882Y000005
X032598Y000005
X035315Y-020202
X035315Y000005
X038031Y-020202
X010866Y-002565
X021732Y-025242
X038031Y000005
X040748Y-000045
X008150Y-002565
X043465Y-000045
X046181Y-000045
X024449Y-025242
X027165Y-025242
X000000Y-002565
X002717Y-002565
X005433Y-002565
X029882Y-025242
X032598Y-025242
X035315Y-025242
X019016Y-002565
X032598Y-007604
X027165Y004994
X032598Y-027761
X021732Y-002565
X029882Y005044
X035315Y-007604
X038031Y-007604
X032598Y005044
X040748Y-007604
X035315Y005044
X043465Y-007604
X024449Y-027761
X027165Y-027761
X024449Y-002565
X035315Y-027761
X027165Y-002565
X046181Y-007604
X038031Y-027761
T02
X001949Y-001250G85X003484Y-001250
X001949Y-006250G85X003484Y-006250
X001949Y-003738G85X003484Y-003738
X004666Y-003775G85X006201Y-003775
X004666Y-001237G85X006201Y-001237
X004666Y001300G85X006201Y001300
X004666Y-008850G85X006201Y-008850
X004666Y-006312G85X006201Y-006312
X007382Y001230G85X008917Y001230
X007382Y-001290G85X008917Y-001290
X007382Y-003810G85X008917Y-003810
X007382Y-006330G85X008917Y-006330
X007382Y-008850G85X008917Y-008850
X007382Y003750G85X008917Y003750
X010099Y003735G85X011634Y003735
X010099Y001215G85X011634Y001215
X010099Y-001305G85X011634Y-001305
X010099Y-003825G85X011634Y-003825
X010099Y-006345G85X011634Y-006345
X010099Y-008865G85X011634Y-008865
X012815Y003735G85X014350Y003735
X015532Y003721G85X017067Y003721
X015532Y001201G85X017067Y001201
X012815Y001215G85X014350Y001215
X012815Y-001305G85X014350Y-001305
X015532Y-001319G85X017067Y-001319
X015532Y-003839G85X017067Y-003839
X012815Y-003825G85X014350Y-003825
X012815Y-006345G85X014350Y-006345
X012815Y-008865G85X014350Y-008865
X015532Y-008879G85X017067Y-008879
X015532Y-006359G85X017067Y-006359
X030685Y003790G85X029150Y003790
X030685Y001270G85X029150Y001270
X030685Y-001250G85X029150Y-001250
X030685Y-003770G85X029150Y-003770
X030685Y-006290G85X029150Y-006290
X030685Y-008810G85X029150Y-008810
X033401Y-008795G85X031866Y-008795
X033401Y-006290G85X031866Y-006290
X033401Y-003770G85X031866Y-003770
X033401Y-001250G85X031866Y-001250
X033401Y001285G85X031866Y001285
X033401Y003805G85X031866Y003805
X036118Y003805G85X034583Y003805
X036118Y001285G85X034583Y001285
X036118Y-001250G85X034583Y-001250
X036118Y-003770G85X034583Y-003770
X036118Y-006290G85X034583Y-006290
X036118Y-008795G85X034583Y-008795
X038834Y-008781G85X037299Y-008781
X041551Y-008781G85X040016Y-008781
X041551Y-006290G85X040016Y-006290
X038834Y-006290G85X037299Y-006290
X038834Y-003770G85X037299Y-003770
X041551Y-003770G85X040016Y-003770
X044268Y-003770G85X042733Y-003770
X044268Y-006290G85X042733Y-006290
X044268Y-001250G85X042733Y-001250
X041551Y-001250G85X040016Y-001250
X038834Y-001250G85X037299Y-001250
X038834Y001299G85X037299Y001299
X038834Y003819G85X037299Y003819
X041551Y001369G85X040016Y001369
M30