G04 Layer name: Top Paste Mask Layer*
G04 Generated by EasyEDA v1.3.13.eb2668, 2021-11-16 08:35:18*
G04 Gerber Generator version 0.3*
G04 Scale: 100 percent, Rotated: No, Reflected: No*
G04 Dimensions in inches*
G04 Leading zeros omitted, absolute positions, 5 integers and 5 decimals*
%FSLAX55Y55*%
%MOIN*%
%ADD10C,0.0002*%
%ADD11R,0.0608X0.0393*%
G75*


G04 PolygonModel Start*
G36*
G01X-710Y-213610D02*
G01X-710Y-215390D01*
G01X-980Y-215580D01*
G01X-2870D01*
G01X-3070Y-215390D01*
G01Y-213610D01*
G01X-2870Y-213420D01*
G01X-980D01*
G01X-710Y-213610D01*
G37*
G54D10*
G01X-710Y-213610D02*
G01X-710Y-215390D01*
G01X-980Y-215580D01*
G01X-2870D01*
G01X-3070Y-215390D01*
G01Y-213610D01*
G01X-2870Y-213420D01*
G01X-980D01*
G01X-710Y-213610D01*
G36*
G01X3070Y-213610D02*
G01X3070Y-215390D01*
G01X2870Y-215580D01*
G01X980D01*
G01X710Y-215390D01*
G01Y-213610D01*
G01X980Y-213420D01*
G01X2870D01*
G01X3070Y-213610D01*
G37*
G01X3070Y-213610D02*
G01X3070Y-215390D01*
G01X2870Y-215580D01*
G01X980D01*
G01X710Y-215390D01*
G01Y-213610D01*
G01X980Y-213420D01*
G01X2870D01*
G01X3070Y-213610D01*
G36*
G01X-710Y-11610D02*
G01X-710Y-13390D01*
G01X-980Y-13580D01*
G01X-2870D01*
G01X-3070Y-13390D01*
G01Y-11610D01*
G01X-2870Y-11420D01*
G01X-980D01*
G01X-710Y-11610D01*
G37*
G01X-710Y-11610D02*
G01X-710Y-13390D01*
G01X-980Y-13580D01*
G01X-2870D01*
G01X-3070Y-13390D01*
G01Y-11610D01*
G01X-2870Y-11420D01*
G01X-980D01*
G01X-710Y-11610D01*
G36*
G01X3070Y-11610D02*
G01X3070Y-13390D01*
G01X2870Y-13580D01*
G01X980D01*
G01X710Y-13390D01*
G01Y-11610D01*
G01X980Y-11420D01*
G01X2870D01*
G01X3070Y-11610D01*
G37*
G01X3070Y-11610D02*
G01X3070Y-13390D01*
G01X2870Y-13580D01*
G01X980D01*
G01X710Y-13390D01*
G01Y-11610D01*
G01X980Y-11420D01*
G01X2870D01*
G01X3070Y-11610D01*
G36*
G01X-710Y-36860D02*
G01X-710Y-38640D01*
G01X-980Y-38830D01*
G01X-2870D01*
G01X-3070Y-38640D01*
G01Y-36860D01*
G01X-2870Y-36670D01*
G01X-980D01*
G01X-710Y-36860D01*
G37*
G01X-710Y-36860D02*
G01X-710Y-38640D01*
G01X-980Y-38830D01*
G01X-2870D01*
G01X-3070Y-38640D01*
G01Y-36860D01*
G01X-2870Y-36670D01*
G01X-980D01*
G01X-710Y-36860D01*
G36*
G01X3070Y-36860D02*
G01X3070Y-38640D01*
G01X2870Y-38830D01*
G01X980D01*
G01X710Y-38640D01*
G01Y-36860D01*
G01X980Y-36670D01*
G01X2870D01*
G01X3070Y-36860D01*
G37*
G01X3070Y-36860D02*
G01X3070Y-38640D01*
G01X2870Y-38830D01*
G01X980D01*
G01X710Y-38640D01*
G01Y-36860D01*
G01X980Y-36670D01*
G01X2870D01*
G01X3070Y-36860D01*
G36*
G01X-710Y-62110D02*
G01X-710Y-63890D01*
G01X-980Y-64080D01*
G01X-2870D01*
G01X-3070Y-63890D01*
G01Y-62110D01*
G01X-2870Y-61920D01*
G01X-980D01*
G01X-710Y-62110D01*
G37*
G01X-710Y-62110D02*
G01X-710Y-63890D01*
G01X-980Y-64080D01*
G01X-2870D01*
G01X-3070Y-63890D01*
G01Y-62110D01*
G01X-2870Y-61920D01*
G01X-980D01*
G01X-710Y-62110D01*
G36*
G01X3070Y-62110D02*
G01X3070Y-63890D01*
G01X2870Y-64080D01*
G01X980D01*
G01X710Y-63890D01*
G01Y-62110D01*
G01X980Y-61920D01*
G01X2870D01*
G01X3070Y-62110D01*
G37*
G01X3070Y-62110D02*
G01X3070Y-63890D01*
G01X2870Y-64080D01*
G01X980D01*
G01X710Y-63890D01*
G01Y-62110D01*
G01X980Y-61920D01*
G01X2870D01*
G01X3070Y-62110D01*
G36*
G01X-710Y-87360D02*
G01X-710Y-89140D01*
G01X-980Y-89330D01*
G01X-2870D01*
G01X-3070Y-89140D01*
G01Y-87360D01*
G01X-2870Y-87170D01*
G01X-980D01*
G01X-710Y-87360D01*
G37*
G01X-710Y-87360D02*
G01X-710Y-89140D01*
G01X-980Y-89330D01*
G01X-2870D01*
G01X-3070Y-89140D01*
G01Y-87360D01*
G01X-2870Y-87170D01*
G01X-980D01*
G01X-710Y-87360D01*
G36*
G01X3070Y-87360D02*
G01X3070Y-89140D01*
G01X2870Y-89330D01*
G01X980D01*
G01X710Y-89140D01*
G01Y-87360D01*
G01X980Y-87170D01*
G01X2870D01*
G01X3070Y-87360D01*
G37*
G01X3070Y-87360D02*
G01X3070Y-89140D01*
G01X2870Y-89330D01*
G01X980D01*
G01X710Y-89140D01*
G01Y-87360D01*
G01X980Y-87170D01*
G01X2870D01*
G01X3070Y-87360D01*
G36*
G01X-710Y-112610D02*
G01X-710Y-114390D01*
G01X-980Y-114580D01*
G01X-2870D01*
G01X-3070Y-114390D01*
G01Y-112610D01*
G01X-2870Y-112420D01*
G01X-980D01*
G01X-710Y-112610D01*
G37*
G01X-710Y-112610D02*
G01X-710Y-114390D01*
G01X-980Y-114580D01*
G01X-2870D01*
G01X-3070Y-114390D01*
G01Y-112610D01*
G01X-2870Y-112420D01*
G01X-980D01*
G01X-710Y-112610D01*
G36*
G01X3070Y-112610D02*
G01X3070Y-114390D01*
G01X2870Y-114580D01*
G01X980D01*
G01X710Y-114390D01*
G01Y-112610D01*
G01X980Y-112420D01*
G01X2870D01*
G01X3070Y-112610D01*
G37*
G01X3070Y-112610D02*
G01X3070Y-114390D01*
G01X2870Y-114580D01*
G01X980D01*
G01X710Y-114390D01*
G01Y-112610D01*
G01X980Y-112420D01*
G01X2870D01*
G01X3070Y-112610D01*
G36*
G01X-710Y-137860D02*
G01X-710Y-139640D01*
G01X-980Y-139830D01*
G01X-2870D01*
G01X-3070Y-139640D01*
G01Y-137860D01*
G01X-2870Y-137670D01*
G01X-980D01*
G01X-710Y-137860D01*
G37*
G01X-710Y-137860D02*
G01X-710Y-139640D01*
G01X-980Y-139830D01*
G01X-2870D01*
G01X-3070Y-139640D01*
G01Y-137860D01*
G01X-2870Y-137670D01*
G01X-980D01*
G01X-710Y-137860D01*
G36*
G01X3070Y-137860D02*
G01X3070Y-139640D01*
G01X2870Y-139830D01*
G01X980D01*
G01X710Y-139640D01*
G01Y-137860D01*
G01X980Y-137670D01*
G01X2870D01*
G01X3070Y-137860D01*
G37*
G01X3070Y-137860D02*
G01X3070Y-139640D01*
G01X2870Y-139830D01*
G01X980D01*
G01X710Y-139640D01*
G01Y-137860D01*
G01X980Y-137670D01*
G01X2870D01*
G01X3070Y-137860D01*
G36*
G01X-710Y-163110D02*
G01X-710Y-164890D01*
G01X-980Y-165080D01*
G01X-2870D01*
G01X-3070Y-164890D01*
G01Y-163110D01*
G01X-2870Y-162920D01*
G01X-980D01*
G01X-710Y-163110D01*
G37*
G01X-710Y-163110D02*
G01X-710Y-164890D01*
G01X-980Y-165080D01*
G01X-2870D01*
G01X-3070Y-164890D01*
G01Y-163110D01*
G01X-2870Y-162920D01*
G01X-980D01*
G01X-710Y-163110D01*
G36*
G01X3070Y-163110D02*
G01X3070Y-164890D01*
G01X2870Y-165080D01*
G01X980D01*
G01X710Y-164890D01*
G01Y-163110D01*
G01X980Y-162920D01*
G01X2870D01*
G01X3070Y-163110D01*
G37*
G01X3070Y-163110D02*
G01X3070Y-164890D01*
G01X2870Y-165080D01*
G01X980D01*
G01X710Y-164890D01*
G01Y-163110D01*
G01X980Y-162920D01*
G01X2870D01*
G01X3070Y-163110D01*
G36*
G01X-710Y-188360D02*
G01X-710Y-190140D01*
G01X-980Y-190330D01*
G01X-2870D01*
G01X-3070Y-190140D01*
G01Y-188360D01*
G01X-2870Y-188170D01*
G01X-980D01*
G01X-710Y-188360D01*
G37*
G01X-710Y-188360D02*
G01X-710Y-190140D01*
G01X-980Y-190330D01*
G01X-2870D01*
G01X-3070Y-190140D01*
G01Y-188360D01*
G01X-2870Y-188170D01*
G01X-980D01*
G01X-710Y-188360D01*
G36*
G01X3070Y-188360D02*
G01X3070Y-190140D01*
G01X2870Y-190330D01*
G01X980D01*
G01X710Y-190140D01*
G01Y-188360D01*
G01X980Y-188170D01*
G01X2870D01*
G01X3070Y-188360D01*
G37*
G01X3070Y-188360D02*
G01X3070Y-190140D01*
G01X2870Y-190330D01*
G01X980D01*
G01X710Y-190140D01*
G01Y-188360D01*
G01X980Y-188170D01*
G01X2870D01*
G01X3070Y-188360D01*
G36*
G01X27875Y-114390D02*
G01X27875Y-112610D01*
G01X28145Y-112420D01*
G01X30035D01*
G01X30235Y-112610D01*
G01Y-114390D01*
G01X30035Y-114580D01*
G01X28145D01*
G01X27875Y-114390D01*
G37*
G01X27875Y-114390D02*
G01X27875Y-112610D01*
G01X28145Y-112420D01*
G01X30035D01*
G01X30235Y-112610D01*
G01Y-114390D01*
G01X30035Y-114580D01*
G01X28145D01*
G01X27875Y-114390D01*
G36*
G01X24095Y-114390D02*
G01X24095Y-112610D01*
G01X24295Y-112420D01*
G01X26185D01*
G01X26455Y-112610D01*
G01Y-114390D01*
G01X26185Y-114580D01*
G01X24295D01*
G01X24095Y-114390D01*
G37*
G01X24095Y-114390D02*
G01X24095Y-112610D01*
G01X24295Y-112420D01*
G01X26185D01*
G01X26455Y-112610D01*
G01Y-114390D01*
G01X26185Y-114580D01*
G01X24295D01*
G01X24095Y-114390D01*
G36*
G01X53621Y-112610D02*
G01X53621Y-114390D01*
G01X53351Y-114580D01*
G01X51461D01*
G01X51261Y-114390D01*
G01Y-112610D01*
G01X51461Y-112420D01*
G01X53351D01*
G01X53621Y-112610D01*
G37*
G01X53621Y-112610D02*
G01X53621Y-114390D01*
G01X53351Y-114580D01*
G01X51461D01*
G01X51261Y-114390D01*
G01Y-112610D01*
G01X51461Y-112420D01*
G01X53351D01*
G01X53621Y-112610D01*
G36*
G01X57401Y-112610D02*
G01X57401Y-114390D01*
G01X57201Y-114580D01*
G01X55311D01*
G01X55041Y-114390D01*
G01Y-112610D01*
G01X55311Y-112420D01*
G01X57201D01*
G01X57401Y-112610D01*
G37*
G01X57401Y-112610D02*
G01X57401Y-114390D01*
G01X57201Y-114580D01*
G01X55311D01*
G01X55041Y-114390D01*
G01Y-112610D01*
G01X55311Y-112420D01*
G01X57201D01*
G01X57401Y-112610D01*
G36*
G01X353860Y-240374D02*
G01X353860Y-238594D01*
G01X354130Y-238404D01*
G01X356020D01*
G01X356220Y-238594D01*
G01Y-240374D01*
G01X356020Y-240564D01*
G01X354130D01*
G01X353860Y-240374D01*
G37*
G01X353860Y-240374D02*
G01X353860Y-238594D01*
G01X354130Y-238404D01*
G01X356020D01*
G01X356220Y-238594D01*
G01Y-240374D01*
G01X356020Y-240564D01*
G01X354130D01*
G01X353860Y-240374D01*
G36*
G01X350080Y-240374D02*
G01X350080Y-238594D01*
G01X350280Y-238404D01*
G01X352170D01*
G01X352440Y-238594D01*
G01Y-240374D01*
G01X352170Y-240564D01*
G01X350280D01*
G01X350080Y-240374D01*
G37*
G01X350080Y-240374D02*
G01X350080Y-238594D01*
G01X350280Y-238404D01*
G01X352170D01*
G01X352440Y-238594D01*
G01Y-240374D01*
G01X352170Y-240564D01*
G01X350280D01*
G01X350080Y-240374D01*
G36*
G01X107951Y-112610D02*
G01X107951Y-114390D01*
G01X107681Y-114580D01*
G01X105791D01*
G01X105591Y-114390D01*
G01Y-112610D01*
G01X105791Y-112420D01*
G01X107681D01*
G01X107951Y-112610D01*
G37*
G01X107951Y-112610D02*
G01X107951Y-114390D01*
G01X107681Y-114580D01*
G01X105791D01*
G01X105591Y-114390D01*
G01Y-112610D01*
G01X105791Y-112420D01*
G01X107681D01*
G01X107951Y-112610D01*
G36*
G01X111731Y-112610D02*
G01X111731Y-114390D01*
G01X111531Y-114580D01*
G01X109641D01*
G01X109371Y-114390D01*
G01Y-112610D01*
G01X109641Y-112420D01*
G01X111531D01*
G01X111731Y-112610D01*
G37*
G01X111731Y-112610D02*
G01X111731Y-114390D01*
G01X111531Y-114580D01*
G01X109641D01*
G01X109371Y-114390D01*
G01Y-112610D01*
G01X109641Y-112420D01*
G01X111531D01*
G01X111731Y-112610D01*
G36*
G01X299529Y-240374D02*
G01X299529Y-238594D01*
G01X299799Y-238404D01*
G01X301689D01*
G01X301889Y-238594D01*
G01Y-240374D01*
G01X301689Y-240564D01*
G01X299799D01*
G01X299529Y-240374D01*
G37*
G01X299529Y-240374D02*
G01X299529Y-238594D01*
G01X299799Y-238404D01*
G01X301689D01*
G01X301889Y-238594D01*
G01Y-240374D01*
G01X301689Y-240564D01*
G01X299799D01*
G01X299529Y-240374D01*
G36*
G01X295749Y-240374D02*
G01X295749Y-238594D01*
G01X295949Y-238404D01*
G01X297839D01*
G01X298109Y-238594D01*
G01Y-240374D01*
G01X297839Y-240564D01*
G01X295949D01*
G01X295749Y-240374D01*
G37*
G01X295749Y-240374D02*
G01X295749Y-238594D01*
G01X295949Y-238404D01*
G01X297839D01*
G01X298109Y-238594D01*
G01Y-240374D01*
G01X297839Y-240564D01*
G01X295949D01*
G01X295749Y-240374D01*
G36*
G01X162282Y-112610D02*
G01X162282Y-114390D01*
G01X162012Y-114580D01*
G01X160122D01*
G01X159922Y-114390D01*
G01Y-112610D01*
G01X160122Y-112420D01*
G01X162012D01*
G01X162282Y-112610D01*
G37*
G01X162282Y-112610D02*
G01X162282Y-114390D01*
G01X162012Y-114580D01*
G01X160122D01*
G01X159922Y-114390D01*
G01Y-112610D01*
G01X160122Y-112420D01*
G01X162012D01*
G01X162282Y-112610D01*
G36*
G01X166062Y-112610D02*
G01X166062Y-114390D01*
G01X165862Y-114580D01*
G01X163972D01*
G01X163702Y-114390D01*
G01Y-112610D01*
G01X163972Y-112420D01*
G01X165862D01*
G01X166062Y-112610D01*
G37*
G01X166062Y-112610D02*
G01X166062Y-114390D01*
G01X165862Y-114580D01*
G01X163972D01*
G01X163702Y-114390D01*
G01Y-112610D01*
G01X163972Y-112420D01*
G01X165862D01*
G01X166062Y-112610D01*
G36*
G01X245198Y-240374D02*
G01X245198Y-238594D01*
G01X245468Y-238404D01*
G01X247358D01*
G01X247558Y-238594D01*
G01Y-240374D01*
G01X247358Y-240564D01*
G01X245468D01*
G01X245198Y-240374D01*
G37*
G01X245198Y-240374D02*
G01X245198Y-238594D01*
G01X245468Y-238404D01*
G01X247358D01*
G01X247558Y-238594D01*
G01Y-240374D01*
G01X247358Y-240564D01*
G01X245468D01*
G01X245198Y-240374D01*
G36*
G01X241418Y-240374D02*
G01X241418Y-238594D01*
G01X241618Y-238404D01*
G01X243508D01*
G01X243778Y-238594D01*
G01Y-240374D01*
G01X243508Y-240564D01*
G01X241618D01*
G01X241418Y-240374D01*
G37*
G01X241418Y-240374D02*
G01X241418Y-238594D01*
G01X241618Y-238404D01*
G01X243508D01*
G01X243778Y-238594D01*
G01Y-240374D01*
G01X243508Y-240564D01*
G01X241618D01*
G01X241418Y-240374D01*
G36*
G01X216613Y-112610D02*
G01X216613Y-114390D01*
G01X216343Y-114580D01*
G01X214453D01*
G01X214253Y-114390D01*
G01Y-112610D01*
G01X214453Y-112420D01*
G01X216343D01*
G01X216613Y-112610D01*
G37*
G01X216613Y-112610D02*
G01X216613Y-114390D01*
G01X216343Y-114580D01*
G01X214453D01*
G01X214253Y-114390D01*
G01Y-112610D01*
G01X214453Y-112420D01*
G01X216343D01*
G01X216613Y-112610D01*
G36*
G01X220393Y-112610D02*
G01X220393Y-114390D01*
G01X220193Y-114580D01*
G01X218303D01*
G01X218033Y-114390D01*
G01Y-112610D01*
G01X218303Y-112420D01*
G01X220193D01*
G01X220393Y-112610D01*
G37*
G01X220393Y-112610D02*
G01X220393Y-114390D01*
G01X220193Y-114580D01*
G01X218303D01*
G01X218033Y-114390D01*
G01Y-112610D01*
G01X218303Y-112420D01*
G01X220193D01*
G01X220393Y-112610D01*
G36*
G01X190867Y-240374D02*
G01X190867Y-238594D01*
G01X191137Y-238404D01*
G01X193027D01*
G01X193227Y-238594D01*
G01Y-240374D01*
G01X193027Y-240564D01*
G01X191137D01*
G01X190867Y-240374D01*
G37*
G01X190867Y-240374D02*
G01X190867Y-238594D01*
G01X191137Y-238404D01*
G01X193027D01*
G01X193227Y-238594D01*
G01Y-240374D01*
G01X193027Y-240564D01*
G01X191137D01*
G01X190867Y-240374D01*
G36*
G01X187087Y-240374D02*
G01X187087Y-238594D01*
G01X187287Y-238404D01*
G01X189177D01*
G01X189447Y-238594D01*
G01Y-240374D01*
G01X189177Y-240564D01*
G01X187287D01*
G01X187087Y-240374D01*
G37*
G01X187087Y-240374D02*
G01X187087Y-238594D01*
G01X187287Y-238404D01*
G01X189177D01*
G01X189447Y-238594D01*
G01Y-240374D01*
G01X189177Y-240564D01*
G01X187287D01*
G01X187087Y-240374D01*
G36*
G01X270944Y-112610D02*
G01X270944Y-114390D01*
G01X270674Y-114580D01*
G01X268784D01*
G01X268584Y-114390D01*
G01Y-112610D01*
G01X268784Y-112420D01*
G01X270674D01*
G01X270944Y-112610D01*
G37*
G01X270944Y-112610D02*
G01X270944Y-114390D01*
G01X270674Y-114580D01*
G01X268784D01*
G01X268584Y-114390D01*
G01Y-112610D01*
G01X268784Y-112420D01*
G01X270674D01*
G01X270944Y-112610D01*
G36*
G01X274724Y-112610D02*
G01X274724Y-114390D01*
G01X274524Y-114580D01*
G01X272634D01*
G01X272364Y-114390D01*
G01Y-112610D01*
G01X272634Y-112420D01*
G01X274524D01*
G01X274724Y-112610D01*
G37*
G01X274724Y-112610D02*
G01X274724Y-114390D01*
G01X274524Y-114580D01*
G01X272634D01*
G01X272364Y-114390D01*
G01Y-112610D01*
G01X272634Y-112420D01*
G01X274524D01*
G01X274724Y-112610D01*
G36*
G01X136537Y-240374D02*
G01X136537Y-238594D01*
G01X136807Y-238404D01*
G01X138697D01*
G01X138897Y-238594D01*
G01Y-240374D01*
G01X138697Y-240564D01*
G01X136807D01*
G01X136537Y-240374D01*
G37*
G01X136537Y-240374D02*
G01X136537Y-238594D01*
G01X136807Y-238404D01*
G01X138697D01*
G01X138897Y-238594D01*
G01Y-240374D01*
G01X138697Y-240564D01*
G01X136807D01*
G01X136537Y-240374D01*
G36*
G01X132757Y-240374D02*
G01X132757Y-238594D01*
G01X132957Y-238404D01*
G01X134847D01*
G01X135117Y-238594D01*
G01Y-240374D01*
G01X134847Y-240564D01*
G01X132957D01*
G01X132757Y-240374D01*
G37*
G01X132757Y-240374D02*
G01X132757Y-238594D01*
G01X132957Y-238404D01*
G01X134847D01*
G01X135117Y-238594D01*
G01Y-240374D01*
G01X134847Y-240564D01*
G01X132957D01*
G01X132757Y-240374D01*
G36*
G01X325274Y-112610D02*
G01X325274Y-114390D01*
G01X325004Y-114580D01*
G01X323114D01*
G01X322914Y-114390D01*
G01Y-112610D01*
G01X323114Y-112420D01*
G01X325004D01*
G01X325274Y-112610D01*
G37*
G01X325274Y-112610D02*
G01X325274Y-114390D01*
G01X325004Y-114580D01*
G01X323114D01*
G01X322914Y-114390D01*
G01Y-112610D01*
G01X323114Y-112420D01*
G01X325004D01*
G01X325274Y-112610D01*
G36*
G01X329054Y-112610D02*
G01X329054Y-114390D01*
G01X328854Y-114580D01*
G01X326964D01*
G01X326694Y-114390D01*
G01Y-112610D01*
G01X326964Y-112420D01*
G01X328854D01*
G01X329054Y-112610D01*
G37*
G01X329054Y-112610D02*
G01X329054Y-114390D01*
G01X328854Y-114580D01*
G01X326964D01*
G01X326694Y-114390D01*
G01Y-112610D01*
G01X326964Y-112420D01*
G01X328854D01*
G01X329054Y-112610D01*
G36*
G01X82206Y-240374D02*
G01X82206Y-238594D01*
G01X82476Y-238404D01*
G01X84366D01*
G01X84566Y-238594D01*
G01Y-240374D01*
G01X84366Y-240564D01*
G01X82476D01*
G01X82206Y-240374D01*
G37*
G01X82206Y-240374D02*
G01X82206Y-238594D01*
G01X82476Y-238404D01*
G01X84366D01*
G01X84566Y-238594D01*
G01Y-240374D01*
G01X84366Y-240564D01*
G01X82476D01*
G01X82206Y-240374D01*
G36*
G01X78426Y-240374D02*
G01X78426Y-238594D01*
G01X78626Y-238404D01*
G01X80516D01*
G01X80786Y-238594D01*
G01Y-240374D01*
G01X80516Y-240564D01*
G01X78626D01*
G01X78426Y-240374D01*
G37*
G01X78426Y-240374D02*
G01X78426Y-238594D01*
G01X78626Y-238404D01*
G01X80516D01*
G01X80786Y-238594D01*
G01Y-240374D01*
G01X80516Y-240564D01*
G01X78626D01*
G01X78426Y-240374D01*
G36*
G01X379605Y-112610D02*
G01X379605Y-114390D01*
G01X379335Y-114580D01*
G01X377445D01*
G01X377245Y-114390D01*
G01Y-112610D01*
G01X377445Y-112420D01*
G01X379335D01*
G01X379605Y-112610D01*
G37*
G01X379605Y-112610D02*
G01X379605Y-114390D01*
G01X379335Y-114580D01*
G01X377445D01*
G01X377245Y-114390D01*
G01Y-112610D01*
G01X377445Y-112420D01*
G01X379335D01*
G01X379605Y-112610D01*
G36*
G01X383385Y-112610D02*
G01X383385Y-114390D01*
G01X383185Y-114580D01*
G01X381295D01*
G01X381025Y-114390D01*
G01Y-112610D01*
G01X381295Y-112420D01*
G01X383185D01*
G01X383385Y-112610D01*
G37*
G01X383385Y-112610D02*
G01X383385Y-114390D01*
G01X383185Y-114580D01*
G01X381295D01*
G01X381025Y-114390D01*
G01Y-112610D01*
G01X381295Y-112420D01*
G01X383185D01*
G01X383385Y-112610D01*
G36*
G01X408190Y-240374D02*
G01X408190Y-238594D01*
G01X408460Y-238404D01*
G01X410350D01*
G01X410550Y-238594D01*
G01Y-240374D01*
G01X410350Y-240564D01*
G01X408460D01*
G01X408190Y-240374D01*
G37*
G01X408190Y-240374D02*
G01X408190Y-238594D01*
G01X408460Y-238404D01*
G01X410350D01*
G01X410550Y-238594D01*
G01Y-240374D01*
G01X410350Y-240564D01*
G01X408460D01*
G01X408190Y-240374D01*
G36*
G01X404410Y-240374D02*
G01X404410Y-238594D01*
G01X404610Y-238404D01*
G01X406500D01*
G01X406770Y-238594D01*
G01Y-240374D01*
G01X406500Y-240564D01*
G01X404610D01*
G01X404410Y-240374D01*
G37*
G01X404410Y-240374D02*
G01X404410Y-238594D01*
G01X404610Y-238404D01*
G01X406500D01*
G01X406770Y-238594D01*
G01Y-240374D01*
G01X406500Y-240564D01*
G01X404610D01*
G01X404410Y-240374D01*
G36*
G01X433936Y-112610D02*
G01X433936Y-114390D01*
G01X433666Y-114580D01*
G01X431776D01*
G01X431576Y-114390D01*
G01Y-112610D01*
G01X431776Y-112420D01*
G01X433666D01*
G01X433936Y-112610D01*
G37*
G01X433936Y-112610D02*
G01X433936Y-114390D01*
G01X433666Y-114580D01*
G01X431776D01*
G01X431576Y-114390D01*
G01Y-112610D01*
G01X431776Y-112420D01*
G01X433666D01*
G01X433936Y-112610D01*
G36*
G01X437716Y-112610D02*
G01X437716Y-114390D01*
G01X437516Y-114580D01*
G01X435626D01*
G01X435356Y-114390D01*
G01Y-112610D01*
G01X435626Y-112420D01*
G01X437516D01*
G01X437716Y-112610D01*
G37*
G01X437716Y-112610D02*
G01X437716Y-114390D01*
G01X437516Y-114580D01*
G01X435626D01*
G01X435356Y-114390D01*
G01Y-112610D01*
G01X435626Y-112420D01*
G01X437516D01*
G01X437716Y-112610D01*
G36*
G01X27875Y-139587D02*
G01X27875Y-137807D01*
G01X28145Y-137617D01*
G01X30035D01*
G01X30235Y-137807D01*
G01Y-139587D01*
G01X30035Y-139777D01*
G01X28145D01*
G01X27875Y-139587D01*
G37*
G01X27875Y-139587D02*
G01X27875Y-137807D01*
G01X28145Y-137617D01*
G01X30035D01*
G01X30235Y-137807D01*
G01Y-139587D01*
G01X30035Y-139777D01*
G01X28145D01*
G01X27875Y-139587D01*
G36*
G01X24095Y-139587D02*
G01X24095Y-137807D01*
G01X24295Y-137617D01*
G01X26185D01*
G01X26455Y-137807D01*
G01Y-139587D01*
G01X26185Y-139777D01*
G01X24295D01*
G01X24095Y-139587D01*
G37*
G01X24095Y-139587D02*
G01X24095Y-137807D01*
G01X24295Y-137617D01*
G01X26185D01*
G01X26455Y-137807D01*
G01Y-139587D01*
G01X26185Y-139777D01*
G01X24295D01*
G01X24095Y-139587D01*
G36*
G01X53621Y-137807D02*
G01X53621Y-139587D01*
G01X53351Y-139777D01*
G01X51461D01*
G01X51261Y-139587D01*
G01Y-137807D01*
G01X51461Y-137617D01*
G01X53351D01*
G01X53621Y-137807D01*
G37*
G01X53621Y-137807D02*
G01X53621Y-139587D01*
G01X53351Y-139777D01*
G01X51461D01*
G01X51261Y-139587D01*
G01Y-137807D01*
G01X51461Y-137617D01*
G01X53351D01*
G01X53621Y-137807D01*
G36*
G01X57401Y-137807D02*
G01X57401Y-139587D01*
G01X57201Y-139777D01*
G01X55311D01*
G01X55041Y-139587D01*
G01Y-137807D01*
G01X55311Y-137617D01*
G01X57201D01*
G01X57401Y-137807D01*
G37*
G01X57401Y-137807D02*
G01X57401Y-139587D01*
G01X57201Y-139777D01*
G01X55311D01*
G01X55041Y-139587D01*
G01Y-137807D01*
G01X55311Y-137617D01*
G01X57201D01*
G01X57401Y-137807D01*
G36*
G01X353860Y-215177D02*
G01X353860Y-213397D01*
G01X354130Y-213207D01*
G01X356020D01*
G01X356220Y-213397D01*
G01Y-215177D01*
G01X356020Y-215367D01*
G01X354130D01*
G01X353860Y-215177D01*
G37*
G01X353860Y-215177D02*
G01X353860Y-213397D01*
G01X354130Y-213207D01*
G01X356020D01*
G01X356220Y-213397D01*
G01Y-215177D01*
G01X356020Y-215367D01*
G01X354130D01*
G01X353860Y-215177D01*
G36*
G01X350080Y-215177D02*
G01X350080Y-213397D01*
G01X350280Y-213207D01*
G01X352170D01*
G01X352440Y-213397D01*
G01Y-215177D01*
G01X352170Y-215367D01*
G01X350280D01*
G01X350080Y-215177D01*
G37*
G01X350080Y-215177D02*
G01X350080Y-213397D01*
G01X350280Y-213207D01*
G01X352170D01*
G01X352440Y-213397D01*
G01Y-215177D01*
G01X352170Y-215367D01*
G01X350280D01*
G01X350080Y-215177D01*
G36*
G01X107951Y-137807D02*
G01X107951Y-139587D01*
G01X107681Y-139777D01*
G01X105791D01*
G01X105591Y-139587D01*
G01Y-137807D01*
G01X105791Y-137617D01*
G01X107681D01*
G01X107951Y-137807D01*
G37*
G01X107951Y-137807D02*
G01X107951Y-139587D01*
G01X107681Y-139777D01*
G01X105791D01*
G01X105591Y-139587D01*
G01Y-137807D01*
G01X105791Y-137617D01*
G01X107681D01*
G01X107951Y-137807D01*
G36*
G01X111731Y-137807D02*
G01X111731Y-139587D01*
G01X111531Y-139777D01*
G01X109641D01*
G01X109371Y-139587D01*
G01Y-137807D01*
G01X109641Y-137617D01*
G01X111531D01*
G01X111731Y-137807D01*
G37*
G01X111731Y-137807D02*
G01X111731Y-139587D01*
G01X111531Y-139777D01*
G01X109641D01*
G01X109371Y-139587D01*
G01Y-137807D01*
G01X109641Y-137617D01*
G01X111531D01*
G01X111731Y-137807D01*
G36*
G01X299529Y-215177D02*
G01X299529Y-213397D01*
G01X299799Y-213207D01*
G01X301689D01*
G01X301889Y-213397D01*
G01Y-215177D01*
G01X301689Y-215367D01*
G01X299799D01*
G01X299529Y-215177D01*
G37*
G01X299529Y-215177D02*
G01X299529Y-213397D01*
G01X299799Y-213207D01*
G01X301689D01*
G01X301889Y-213397D01*
G01Y-215177D01*
G01X301689Y-215367D01*
G01X299799D01*
G01X299529Y-215177D01*
G36*
G01X295749Y-215177D02*
G01X295749Y-213397D01*
G01X295949Y-213207D01*
G01X297839D01*
G01X298109Y-213397D01*
G01Y-215177D01*
G01X297839Y-215367D01*
G01X295949D01*
G01X295749Y-215177D01*
G37*
G01X295749Y-215177D02*
G01X295749Y-213397D01*
G01X295949Y-213207D01*
G01X297839D01*
G01X298109Y-213397D01*
G01Y-215177D01*
G01X297839Y-215367D01*
G01X295949D01*
G01X295749Y-215177D01*
G36*
G01X162282Y-137807D02*
G01X162282Y-139587D01*
G01X162012Y-139777D01*
G01X160122D01*
G01X159922Y-139587D01*
G01Y-137807D01*
G01X160122Y-137617D01*
G01X162012D01*
G01X162282Y-137807D01*
G37*
G01X162282Y-137807D02*
G01X162282Y-139587D01*
G01X162012Y-139777D01*
G01X160122D01*
G01X159922Y-139587D01*
G01Y-137807D01*
G01X160122Y-137617D01*
G01X162012D01*
G01X162282Y-137807D01*
G36*
G01X166062Y-137807D02*
G01X166062Y-139587D01*
G01X165862Y-139777D01*
G01X163972D01*
G01X163702Y-139587D01*
G01Y-137807D01*
G01X163972Y-137617D01*
G01X165862D01*
G01X166062Y-137807D01*
G37*
G01X166062Y-137807D02*
G01X166062Y-139587D01*
G01X165862Y-139777D01*
G01X163972D01*
G01X163702Y-139587D01*
G01Y-137807D01*
G01X163972Y-137617D01*
G01X165862D01*
G01X166062Y-137807D01*
G36*
G01X245198Y-215177D02*
G01X245198Y-213397D01*
G01X245468Y-213207D01*
G01X247358D01*
G01X247558Y-213397D01*
G01Y-215177D01*
G01X247358Y-215367D01*
G01X245468D01*
G01X245198Y-215177D01*
G37*
G01X245198Y-215177D02*
G01X245198Y-213397D01*
G01X245468Y-213207D01*
G01X247358D01*
G01X247558Y-213397D01*
G01Y-215177D01*
G01X247358Y-215367D01*
G01X245468D01*
G01X245198Y-215177D01*
G36*
G01X241418Y-215177D02*
G01X241418Y-213397D01*
G01X241618Y-213207D01*
G01X243508D01*
G01X243778Y-213397D01*
G01Y-215177D01*
G01X243508Y-215367D01*
G01X241618D01*
G01X241418Y-215177D01*
G37*
G01X241418Y-215177D02*
G01X241418Y-213397D01*
G01X241618Y-213207D01*
G01X243508D01*
G01X243778Y-213397D01*
G01Y-215177D01*
G01X243508Y-215367D01*
G01X241618D01*
G01X241418Y-215177D01*
G36*
G01X216613Y-137807D02*
G01X216613Y-139587D01*
G01X216343Y-139777D01*
G01X214453D01*
G01X214253Y-139587D01*
G01Y-137807D01*
G01X214453Y-137617D01*
G01X216343D01*
G01X216613Y-137807D01*
G37*
G01X216613Y-137807D02*
G01X216613Y-139587D01*
G01X216343Y-139777D01*
G01X214453D01*
G01X214253Y-139587D01*
G01Y-137807D01*
G01X214453Y-137617D01*
G01X216343D01*
G01X216613Y-137807D01*
G36*
G01X220393Y-137807D02*
G01X220393Y-139587D01*
G01X220193Y-139777D01*
G01X218303D01*
G01X218033Y-139587D01*
G01Y-137807D01*
G01X218303Y-137617D01*
G01X220193D01*
G01X220393Y-137807D01*
G37*
G01X220393Y-137807D02*
G01X220393Y-139587D01*
G01X220193Y-139777D01*
G01X218303D01*
G01X218033Y-139587D01*
G01Y-137807D01*
G01X218303Y-137617D01*
G01X220193D01*
G01X220393Y-137807D01*
G36*
G01X190867Y-215177D02*
G01X190867Y-213397D01*
G01X191137Y-213207D01*
G01X193027D01*
G01X193227Y-213397D01*
G01Y-215177D01*
G01X193027Y-215367D01*
G01X191137D01*
G01X190867Y-215177D01*
G37*
G01X190867Y-215177D02*
G01X190867Y-213397D01*
G01X191137Y-213207D01*
G01X193027D01*
G01X193227Y-213397D01*
G01Y-215177D01*
G01X193027Y-215367D01*
G01X191137D01*
G01X190867Y-215177D01*
G36*
G01X187087Y-215177D02*
G01X187087Y-213397D01*
G01X187287Y-213207D01*
G01X189177D01*
G01X189447Y-213397D01*
G01Y-215177D01*
G01X189177Y-215367D01*
G01X187287D01*
G01X187087Y-215177D01*
G37*
G01X187087Y-215177D02*
G01X187087Y-213397D01*
G01X187287Y-213207D01*
G01X189177D01*
G01X189447Y-213397D01*
G01Y-215177D01*
G01X189177Y-215367D01*
G01X187287D01*
G01X187087Y-215177D01*
G36*
G01X270944Y-137807D02*
G01X270944Y-139587D01*
G01X270674Y-139777D01*
G01X268784D01*
G01X268584Y-139587D01*
G01Y-137807D01*
G01X268784Y-137617D01*
G01X270674D01*
G01X270944Y-137807D01*
G37*
G01X270944Y-137807D02*
G01X270944Y-139587D01*
G01X270674Y-139777D01*
G01X268784D01*
G01X268584Y-139587D01*
G01Y-137807D01*
G01X268784Y-137617D01*
G01X270674D01*
G01X270944Y-137807D01*
G36*
G01X274724Y-137807D02*
G01X274724Y-139587D01*
G01X274524Y-139777D01*
G01X272634D01*
G01X272364Y-139587D01*
G01Y-137807D01*
G01X272634Y-137617D01*
G01X274524D01*
G01X274724Y-137807D01*
G37*
G01X274724Y-137807D02*
G01X274724Y-139587D01*
G01X274524Y-139777D01*
G01X272634D01*
G01X272364Y-139587D01*
G01Y-137807D01*
G01X272634Y-137617D01*
G01X274524D01*
G01X274724Y-137807D01*
G36*
G01X136537Y-215177D02*
G01X136537Y-213397D01*
G01X136807Y-213207D01*
G01X138697D01*
G01X138897Y-213397D01*
G01Y-215177D01*
G01X138697Y-215367D01*
G01X136807D01*
G01X136537Y-215177D01*
G37*
G01X136537Y-215177D02*
G01X136537Y-213397D01*
G01X136807Y-213207D01*
G01X138697D01*
G01X138897Y-213397D01*
G01Y-215177D01*
G01X138697Y-215367D01*
G01X136807D01*
G01X136537Y-215177D01*
G36*
G01X132757Y-215177D02*
G01X132757Y-213397D01*
G01X132957Y-213207D01*
G01X134847D01*
G01X135117Y-213397D01*
G01Y-215177D01*
G01X134847Y-215367D01*
G01X132957D01*
G01X132757Y-215177D01*
G37*
G01X132757Y-215177D02*
G01X132757Y-213397D01*
G01X132957Y-213207D01*
G01X134847D01*
G01X135117Y-213397D01*
G01Y-215177D01*
G01X134847Y-215367D01*
G01X132957D01*
G01X132757Y-215177D01*
G36*
G01X325274Y-137807D02*
G01X325274Y-139587D01*
G01X325004Y-139777D01*
G01X323114D01*
G01X322914Y-139587D01*
G01Y-137807D01*
G01X323114Y-137617D01*
G01X325004D01*
G01X325274Y-137807D01*
G37*
G01X325274Y-137807D02*
G01X325274Y-139587D01*
G01X325004Y-139777D01*
G01X323114D01*
G01X322914Y-139587D01*
G01Y-137807D01*
G01X323114Y-137617D01*
G01X325004D01*
G01X325274Y-137807D01*
G36*
G01X329054Y-137807D02*
G01X329054Y-139587D01*
G01X328854Y-139777D01*
G01X326964D01*
G01X326694Y-139587D01*
G01Y-137807D01*
G01X326964Y-137617D01*
G01X328854D01*
G01X329054Y-137807D01*
G37*
G01X329054Y-137807D02*
G01X329054Y-139587D01*
G01X328854Y-139777D01*
G01X326964D01*
G01X326694Y-139587D01*
G01Y-137807D01*
G01X326964Y-137617D01*
G01X328854D01*
G01X329054Y-137807D01*
G36*
G01X82206Y-215177D02*
G01X82206Y-213397D01*
G01X82476Y-213207D01*
G01X84366D01*
G01X84566Y-213397D01*
G01Y-215177D01*
G01X84366Y-215367D01*
G01X82476D01*
G01X82206Y-215177D01*
G37*
G01X82206Y-215177D02*
G01X82206Y-213397D01*
G01X82476Y-213207D01*
G01X84366D01*
G01X84566Y-213397D01*
G01Y-215177D01*
G01X84366Y-215367D01*
G01X82476D01*
G01X82206Y-215177D01*
G36*
G01X78426Y-215177D02*
G01X78426Y-213397D01*
G01X78626Y-213207D01*
G01X80516D01*
G01X80786Y-213397D01*
G01Y-215177D01*
G01X80516Y-215367D01*
G01X78626D01*
G01X78426Y-215177D01*
G37*
G01X78426Y-215177D02*
G01X78426Y-213397D01*
G01X78626Y-213207D01*
G01X80516D01*
G01X80786Y-213397D01*
G01Y-215177D01*
G01X80516Y-215367D01*
G01X78626D01*
G01X78426Y-215177D01*
G36*
G01X379605Y-137807D02*
G01X379605Y-139587D01*
G01X379335Y-139777D01*
G01X377445D01*
G01X377245Y-139587D01*
G01Y-137807D01*
G01X377445Y-137617D01*
G01X379335D01*
G01X379605Y-137807D01*
G37*
G01X379605Y-137807D02*
G01X379605Y-139587D01*
G01X379335Y-139777D01*
G01X377445D01*
G01X377245Y-139587D01*
G01Y-137807D01*
G01X377445Y-137617D01*
G01X379335D01*
G01X379605Y-137807D01*
G36*
G01X383385Y-137807D02*
G01X383385Y-139587D01*
G01X383185Y-139777D01*
G01X381295D01*
G01X381025Y-139587D01*
G01Y-137807D01*
G01X381295Y-137617D01*
G01X383185D01*
G01X383385Y-137807D01*
G37*
G01X383385Y-137807D02*
G01X383385Y-139587D01*
G01X383185Y-139777D01*
G01X381295D01*
G01X381025Y-139587D01*
G01Y-137807D01*
G01X381295Y-137617D01*
G01X383185D01*
G01X383385Y-137807D01*
G36*
G01X408190Y-215177D02*
G01X408190Y-213397D01*
G01X408460Y-213207D01*
G01X410350D01*
G01X410550Y-213397D01*
G01Y-215177D01*
G01X410350Y-215367D01*
G01X408460D01*
G01X408190Y-215177D01*
G37*
G01X408190Y-215177D02*
G01X408190Y-213397D01*
G01X408460Y-213207D01*
G01X410350D01*
G01X410550Y-213397D01*
G01Y-215177D01*
G01X410350Y-215367D01*
G01X408460D01*
G01X408190Y-215177D01*
G36*
G01X404410Y-215177D02*
G01X404410Y-213397D01*
G01X404610Y-213207D01*
G01X406500D01*
G01X406770Y-213397D01*
G01Y-215177D01*
G01X406500Y-215367D01*
G01X404610D01*
G01X404410Y-215177D01*
G37*
G01X404410Y-215177D02*
G01X404410Y-213397D01*
G01X404610Y-213207D01*
G01X406500D01*
G01X406770Y-213397D01*
G01Y-215177D01*
G01X406500Y-215367D01*
G01X404610D01*
G01X404410Y-215177D01*
G36*
G01X433936Y-137807D02*
G01X433936Y-139587D01*
G01X433666Y-139777D01*
G01X431776D01*
G01X431576Y-139587D01*
G01Y-137807D01*
G01X431776Y-137617D01*
G01X433666D01*
G01X433936Y-137807D01*
G37*
G01X433936Y-137807D02*
G01X433936Y-139587D01*
G01X433666Y-139777D01*
G01X431776D01*
G01X431576Y-139587D01*
G01Y-137807D01*
G01X431776Y-137617D01*
G01X433666D01*
G01X433936Y-137807D01*
G36*
G01X437716Y-137807D02*
G01X437716Y-139587D01*
G01X437516Y-139777D01*
G01X435626D01*
G01X435356Y-139587D01*
G01Y-137807D01*
G01X435626Y-137617D01*
G01X437516D01*
G01X437716Y-137807D01*
G37*
G01X437716Y-137807D02*
G01X437716Y-139587D01*
G01X437516Y-139777D01*
G01X435626D01*
G01X435356Y-139587D01*
G01Y-137807D01*
G01X435626Y-137617D01*
G01X437516D01*
G01X437716Y-137807D01*
G36*
G01X27875Y-164784D02*
G01X27875Y-163004D01*
G01X28145Y-162814D01*
G01X30035D01*
G01X30235Y-163004D01*
G01Y-164784D01*
G01X30035Y-164974D01*
G01X28145D01*
G01X27875Y-164784D01*
G37*
G01X27875Y-164784D02*
G01X27875Y-163004D01*
G01X28145Y-162814D01*
G01X30035D01*
G01X30235Y-163004D01*
G01Y-164784D01*
G01X30035Y-164974D01*
G01X28145D01*
G01X27875Y-164784D01*
G36*
G01X24095Y-164784D02*
G01X24095Y-163004D01*
G01X24295Y-162814D01*
G01X26185D01*
G01X26455Y-163004D01*
G01Y-164784D01*
G01X26185Y-164974D01*
G01X24295D01*
G01X24095Y-164784D01*
G37*
G01X24095Y-164784D02*
G01X24095Y-163004D01*
G01X24295Y-162814D01*
G01X26185D01*
G01X26455Y-163004D01*
G01Y-164784D01*
G01X26185Y-164974D01*
G01X24295D01*
G01X24095Y-164784D01*
G36*
G01X53621Y-163004D02*
G01X53621Y-164784D01*
G01X53351Y-164974D01*
G01X51461D01*
G01X51261Y-164784D01*
G01Y-163004D01*
G01X51461Y-162814D01*
G01X53351D01*
G01X53621Y-163004D01*
G37*
G01X53621Y-163004D02*
G01X53621Y-164784D01*
G01X53351Y-164974D01*
G01X51461D01*
G01X51261Y-164784D01*
G01Y-163004D01*
G01X51461Y-162814D01*
G01X53351D01*
G01X53621Y-163004D01*
G36*
G01X57401Y-163004D02*
G01X57401Y-164784D01*
G01X57201Y-164974D01*
G01X55311D01*
G01X55041Y-164784D01*
G01Y-163004D01*
G01X55311Y-162814D01*
G01X57201D01*
G01X57401Y-163004D01*
G37*
G01X57401Y-163004D02*
G01X57401Y-164784D01*
G01X57201Y-164974D01*
G01X55311D01*
G01X55041Y-164784D01*
G01Y-163004D01*
G01X55311Y-162814D01*
G01X57201D01*
G01X57401Y-163004D01*
G36*
G01X353860Y-189981D02*
G01X353860Y-188201D01*
G01X354130Y-188011D01*
G01X356020D01*
G01X356220Y-188201D01*
G01Y-189981D01*
G01X356020Y-190171D01*
G01X354130D01*
G01X353860Y-189981D01*
G37*
G01X353860Y-189981D02*
G01X353860Y-188201D01*
G01X354130Y-188011D01*
G01X356020D01*
G01X356220Y-188201D01*
G01Y-189981D01*
G01X356020Y-190171D01*
G01X354130D01*
G01X353860Y-189981D01*
G36*
G01X350080Y-189981D02*
G01X350080Y-188201D01*
G01X350280Y-188011D01*
G01X352170D01*
G01X352440Y-188201D01*
G01Y-189981D01*
G01X352170Y-190171D01*
G01X350280D01*
G01X350080Y-189981D01*
G37*
G01X350080Y-189981D02*
G01X350080Y-188201D01*
G01X350280Y-188011D01*
G01X352170D01*
G01X352440Y-188201D01*
G01Y-189981D01*
G01X352170Y-190171D01*
G01X350280D01*
G01X350080Y-189981D01*
G36*
G01X107951Y-163004D02*
G01X107951Y-164784D01*
G01X107681Y-164974D01*
G01X105791D01*
G01X105591Y-164784D01*
G01Y-163004D01*
G01X105791Y-162814D01*
G01X107681D01*
G01X107951Y-163004D01*
G37*
G01X107951Y-163004D02*
G01X107951Y-164784D01*
G01X107681Y-164974D01*
G01X105791D01*
G01X105591Y-164784D01*
G01Y-163004D01*
G01X105791Y-162814D01*
G01X107681D01*
G01X107951Y-163004D01*
G36*
G01X111731Y-163004D02*
G01X111731Y-164784D01*
G01X111531Y-164974D01*
G01X109641D01*
G01X109371Y-164784D01*
G01Y-163004D01*
G01X109641Y-162814D01*
G01X111531D01*
G01X111731Y-163004D01*
G37*
G01X111731Y-163004D02*
G01X111731Y-164784D01*
G01X111531Y-164974D01*
G01X109641D01*
G01X109371Y-164784D01*
G01Y-163004D01*
G01X109641Y-162814D01*
G01X111531D01*
G01X111731Y-163004D01*
G36*
G01X299529Y-189981D02*
G01X299529Y-188201D01*
G01X299799Y-188011D01*
G01X301689D01*
G01X301889Y-188201D01*
G01Y-189981D01*
G01X301689Y-190171D01*
G01X299799D01*
G01X299529Y-189981D01*
G37*
G01X299529Y-189981D02*
G01X299529Y-188201D01*
G01X299799Y-188011D01*
G01X301689D01*
G01X301889Y-188201D01*
G01Y-189981D01*
G01X301689Y-190171D01*
G01X299799D01*
G01X299529Y-189981D01*
G36*
G01X295749Y-189981D02*
G01X295749Y-188201D01*
G01X295949Y-188011D01*
G01X297839D01*
G01X298109Y-188201D01*
G01Y-189981D01*
G01X297839Y-190171D01*
G01X295949D01*
G01X295749Y-189981D01*
G37*
G01X295749Y-189981D02*
G01X295749Y-188201D01*
G01X295949Y-188011D01*
G01X297839D01*
G01X298109Y-188201D01*
G01Y-189981D01*
G01X297839Y-190171D01*
G01X295949D01*
G01X295749Y-189981D01*
G36*
G01X162282Y-163004D02*
G01X162282Y-164784D01*
G01X162012Y-164974D01*
G01X160122D01*
G01X159922Y-164784D01*
G01Y-163004D01*
G01X160122Y-162814D01*
G01X162012D01*
G01X162282Y-163004D01*
G37*
G01X162282Y-163004D02*
G01X162282Y-164784D01*
G01X162012Y-164974D01*
G01X160122D01*
G01X159922Y-164784D01*
G01Y-163004D01*
G01X160122Y-162814D01*
G01X162012D01*
G01X162282Y-163004D01*
G36*
G01X166062Y-163004D02*
G01X166062Y-164784D01*
G01X165862Y-164974D01*
G01X163972D01*
G01X163702Y-164784D01*
G01Y-163004D01*
G01X163972Y-162814D01*
G01X165862D01*
G01X166062Y-163004D01*
G37*
G01X166062Y-163004D02*
G01X166062Y-164784D01*
G01X165862Y-164974D01*
G01X163972D01*
G01X163702Y-164784D01*
G01Y-163004D01*
G01X163972Y-162814D01*
G01X165862D01*
G01X166062Y-163004D01*
G36*
G01X245198Y-189981D02*
G01X245198Y-188201D01*
G01X245468Y-188011D01*
G01X247358D01*
G01X247558Y-188201D01*
G01Y-189981D01*
G01X247358Y-190171D01*
G01X245468D01*
G01X245198Y-189981D01*
G37*
G01X245198Y-189981D02*
G01X245198Y-188201D01*
G01X245468Y-188011D01*
G01X247358D01*
G01X247558Y-188201D01*
G01Y-189981D01*
G01X247358Y-190171D01*
G01X245468D01*
G01X245198Y-189981D01*
G36*
G01X241418Y-189981D02*
G01X241418Y-188201D01*
G01X241618Y-188011D01*
G01X243508D01*
G01X243778Y-188201D01*
G01Y-189981D01*
G01X243508Y-190171D01*
G01X241618D01*
G01X241418Y-189981D01*
G37*
G01X241418Y-189981D02*
G01X241418Y-188201D01*
G01X241618Y-188011D01*
G01X243508D01*
G01X243778Y-188201D01*
G01Y-189981D01*
G01X243508Y-190171D01*
G01X241618D01*
G01X241418Y-189981D01*
G36*
G01X216613Y-163004D02*
G01X216613Y-164784D01*
G01X216343Y-164974D01*
G01X214453D01*
G01X214253Y-164784D01*
G01Y-163004D01*
G01X214453Y-162814D01*
G01X216343D01*
G01X216613Y-163004D01*
G37*
G01X216613Y-163004D02*
G01X216613Y-164784D01*
G01X216343Y-164974D01*
G01X214453D01*
G01X214253Y-164784D01*
G01Y-163004D01*
G01X214453Y-162814D01*
G01X216343D01*
G01X216613Y-163004D01*
G36*
G01X220393Y-163004D02*
G01X220393Y-164784D01*
G01X220193Y-164974D01*
G01X218303D01*
G01X218033Y-164784D01*
G01Y-163004D01*
G01X218303Y-162814D01*
G01X220193D01*
G01X220393Y-163004D01*
G37*
G01X220393Y-163004D02*
G01X220393Y-164784D01*
G01X220193Y-164974D01*
G01X218303D01*
G01X218033Y-164784D01*
G01Y-163004D01*
G01X218303Y-162814D01*
G01X220193D01*
G01X220393Y-163004D01*
G36*
G01X190867Y-189981D02*
G01X190867Y-188201D01*
G01X191137Y-188011D01*
G01X193027D01*
G01X193227Y-188201D01*
G01Y-189981D01*
G01X193027Y-190171D01*
G01X191137D01*
G01X190867Y-189981D01*
G37*
G01X190867Y-189981D02*
G01X190867Y-188201D01*
G01X191137Y-188011D01*
G01X193027D01*
G01X193227Y-188201D01*
G01Y-189981D01*
G01X193027Y-190171D01*
G01X191137D01*
G01X190867Y-189981D01*
G36*
G01X187087Y-189981D02*
G01X187087Y-188201D01*
G01X187287Y-188011D01*
G01X189177D01*
G01X189447Y-188201D01*
G01Y-189981D01*
G01X189177Y-190171D01*
G01X187287D01*
G01X187087Y-189981D01*
G37*
G01X187087Y-189981D02*
G01X187087Y-188201D01*
G01X187287Y-188011D01*
G01X189177D01*
G01X189447Y-188201D01*
G01Y-189981D01*
G01X189177Y-190171D01*
G01X187287D01*
G01X187087Y-189981D01*
G36*
G01X270944Y-163004D02*
G01X270944Y-164784D01*
G01X270674Y-164974D01*
G01X268784D01*
G01X268584Y-164784D01*
G01Y-163004D01*
G01X268784Y-162814D01*
G01X270674D01*
G01X270944Y-163004D01*
G37*
G01X270944Y-163004D02*
G01X270944Y-164784D01*
G01X270674Y-164974D01*
G01X268784D01*
G01X268584Y-164784D01*
G01Y-163004D01*
G01X268784Y-162814D01*
G01X270674D01*
G01X270944Y-163004D01*
G36*
G01X274724Y-163004D02*
G01X274724Y-164784D01*
G01X274524Y-164974D01*
G01X272634D01*
G01X272364Y-164784D01*
G01Y-163004D01*
G01X272634Y-162814D01*
G01X274524D01*
G01X274724Y-163004D01*
G37*
G01X274724Y-163004D02*
G01X274724Y-164784D01*
G01X274524Y-164974D01*
G01X272634D01*
G01X272364Y-164784D01*
G01Y-163004D01*
G01X272634Y-162814D01*
G01X274524D01*
G01X274724Y-163004D01*
G36*
G01X136537Y-189981D02*
G01X136537Y-188201D01*
G01X136807Y-188011D01*
G01X138697D01*
G01X138897Y-188201D01*
G01Y-189981D01*
G01X138697Y-190171D01*
G01X136807D01*
G01X136537Y-189981D01*
G37*
G01X136537Y-189981D02*
G01X136537Y-188201D01*
G01X136807Y-188011D01*
G01X138697D01*
G01X138897Y-188201D01*
G01Y-189981D01*
G01X138697Y-190171D01*
G01X136807D01*
G01X136537Y-189981D01*
G36*
G01X132757Y-189981D02*
G01X132757Y-188201D01*
G01X132957Y-188011D01*
G01X134847D01*
G01X135117Y-188201D01*
G01Y-189981D01*
G01X134847Y-190171D01*
G01X132957D01*
G01X132757Y-189981D01*
G37*
G01X132757Y-189981D02*
G01X132757Y-188201D01*
G01X132957Y-188011D01*
G01X134847D01*
G01X135117Y-188201D01*
G01Y-189981D01*
G01X134847Y-190171D01*
G01X132957D01*
G01X132757Y-189981D01*
G36*
G01X325274Y-163004D02*
G01X325274Y-164784D01*
G01X325004Y-164974D01*
G01X323114D01*
G01X322914Y-164784D01*
G01Y-163004D01*
G01X323114Y-162814D01*
G01X325004D01*
G01X325274Y-163004D01*
G37*
G01X325274Y-163004D02*
G01X325274Y-164784D01*
G01X325004Y-164974D01*
G01X323114D01*
G01X322914Y-164784D01*
G01Y-163004D01*
G01X323114Y-162814D01*
G01X325004D01*
G01X325274Y-163004D01*
G36*
G01X329054Y-163004D02*
G01X329054Y-164784D01*
G01X328854Y-164974D01*
G01X326964D01*
G01X326694Y-164784D01*
G01Y-163004D01*
G01X326964Y-162814D01*
G01X328854D01*
G01X329054Y-163004D01*
G37*
G01X329054Y-163004D02*
G01X329054Y-164784D01*
G01X328854Y-164974D01*
G01X326964D01*
G01X326694Y-164784D01*
G01Y-163004D01*
G01X326964Y-162814D01*
G01X328854D01*
G01X329054Y-163004D01*
G36*
G01X82206Y-189981D02*
G01X82206Y-188201D01*
G01X82476Y-188011D01*
G01X84366D01*
G01X84566Y-188201D01*
G01Y-189981D01*
G01X84366Y-190171D01*
G01X82476D01*
G01X82206Y-189981D01*
G37*
G01X82206Y-189981D02*
G01X82206Y-188201D01*
G01X82476Y-188011D01*
G01X84366D01*
G01X84566Y-188201D01*
G01Y-189981D01*
G01X84366Y-190171D01*
G01X82476D01*
G01X82206Y-189981D01*
G36*
G01X78426Y-189981D02*
G01X78426Y-188201D01*
G01X78626Y-188011D01*
G01X80516D01*
G01X80786Y-188201D01*
G01Y-189981D01*
G01X80516Y-190171D01*
G01X78626D01*
G01X78426Y-189981D01*
G37*
G01X78426Y-189981D02*
G01X78426Y-188201D01*
G01X78626Y-188011D01*
G01X80516D01*
G01X80786Y-188201D01*
G01Y-189981D01*
G01X80516Y-190171D01*
G01X78626D01*
G01X78426Y-189981D01*
G36*
G01X379605Y-163004D02*
G01X379605Y-164784D01*
G01X379335Y-164974D01*
G01X377445D01*
G01X377245Y-164784D01*
G01Y-163004D01*
G01X377445Y-162814D01*
G01X379335D01*
G01X379605Y-163004D01*
G37*
G01X379605Y-163004D02*
G01X379605Y-164784D01*
G01X379335Y-164974D01*
G01X377445D01*
G01X377245Y-164784D01*
G01Y-163004D01*
G01X377445Y-162814D01*
G01X379335D01*
G01X379605Y-163004D01*
G36*
G01X383385Y-163004D02*
G01X383385Y-164784D01*
G01X383185Y-164974D01*
G01X381295D01*
G01X381025Y-164784D01*
G01Y-163004D01*
G01X381295Y-162814D01*
G01X383185D01*
G01X383385Y-163004D01*
G37*
G01X383385Y-163004D02*
G01X383385Y-164784D01*
G01X383185Y-164974D01*
G01X381295D01*
G01X381025Y-164784D01*
G01Y-163004D01*
G01X381295Y-162814D01*
G01X383185D01*
G01X383385Y-163004D01*
G36*
G01X408190Y-189981D02*
G01X408190Y-188201D01*
G01X408460Y-188011D01*
G01X410350D01*
G01X410550Y-188201D01*
G01Y-189981D01*
G01X410350Y-190171D01*
G01X408460D01*
G01X408190Y-189981D01*
G37*
G01X408190Y-189981D02*
G01X408190Y-188201D01*
G01X408460Y-188011D01*
G01X410350D01*
G01X410550Y-188201D01*
G01Y-189981D01*
G01X410350Y-190171D01*
G01X408460D01*
G01X408190Y-189981D01*
G36*
G01X404410Y-189981D02*
G01X404410Y-188201D01*
G01X404610Y-188011D01*
G01X406500D01*
G01X406770Y-188201D01*
G01Y-189981D01*
G01X406500Y-190171D01*
G01X404610D01*
G01X404410Y-189981D01*
G37*
G01X404410Y-189981D02*
G01X404410Y-188201D01*
G01X404610Y-188011D01*
G01X406500D01*
G01X406770Y-188201D01*
G01Y-189981D01*
G01X406500Y-190171D01*
G01X404610D01*
G01X404410Y-189981D01*
G36*
G01X433936Y-163004D02*
G01X433936Y-164784D01*
G01X433666Y-164974D01*
G01X431776D01*
G01X431576Y-164784D01*
G01Y-163004D01*
G01X431776Y-162814D01*
G01X433666D01*
G01X433936Y-163004D01*
G37*
G01X433936Y-163004D02*
G01X433936Y-164784D01*
G01X433666Y-164974D01*
G01X431776D01*
G01X431576Y-164784D01*
G01Y-163004D01*
G01X431776Y-162814D01*
G01X433666D01*
G01X433936Y-163004D01*
G36*
G01X437716Y-163004D02*
G01X437716Y-164784D01*
G01X437516Y-164974D01*
G01X435626D01*
G01X435356Y-164784D01*
G01Y-163004D01*
G01X435626Y-162814D01*
G01X437516D01*
G01X437716Y-163004D01*
G37*
G01X437716Y-163004D02*
G01X437716Y-164784D01*
G01X437516Y-164974D01*
G01X435626D01*
G01X435356Y-164784D01*
G01Y-163004D01*
G01X435626Y-162814D01*
G01X437516D01*
G01X437716Y-163004D01*
G36*
G01X27875Y-189981D02*
G01X27875Y-188201D01*
G01X28145Y-188011D01*
G01X30035D01*
G01X30235Y-188201D01*
G01Y-189981D01*
G01X30035Y-190171D01*
G01X28145D01*
G01X27875Y-189981D01*
G37*
G01X27875Y-189981D02*
G01X27875Y-188201D01*
G01X28145Y-188011D01*
G01X30035D01*
G01X30235Y-188201D01*
G01Y-189981D01*
G01X30035Y-190171D01*
G01X28145D01*
G01X27875Y-189981D01*
G36*
G01X24095Y-189981D02*
G01X24095Y-188201D01*
G01X24295Y-188011D01*
G01X26185D01*
G01X26455Y-188201D01*
G01Y-189981D01*
G01X26185Y-190171D01*
G01X24295D01*
G01X24095Y-189981D01*
G37*
G01X24095Y-189981D02*
G01X24095Y-188201D01*
G01X24295Y-188011D01*
G01X26185D01*
G01X26455Y-188201D01*
G01Y-189981D01*
G01X26185Y-190171D01*
G01X24295D01*
G01X24095Y-189981D01*
G36*
G01X53621Y-188201D02*
G01X53621Y-189981D01*
G01X53351Y-190171D01*
G01X51461D01*
G01X51261Y-189981D01*
G01Y-188201D01*
G01X51461Y-188011D01*
G01X53351D01*
G01X53621Y-188201D01*
G37*
G01X53621Y-188201D02*
G01X53621Y-189981D01*
G01X53351Y-190171D01*
G01X51461D01*
G01X51261Y-189981D01*
G01Y-188201D01*
G01X51461Y-188011D01*
G01X53351D01*
G01X53621Y-188201D01*
G36*
G01X57401Y-188201D02*
G01X57401Y-189981D01*
G01X57201Y-190171D01*
G01X55311D01*
G01X55041Y-189981D01*
G01Y-188201D01*
G01X55311Y-188011D01*
G01X57201D01*
G01X57401Y-188201D01*
G37*
G01X57401Y-188201D02*
G01X57401Y-189981D01*
G01X57201Y-190171D01*
G01X55311D01*
G01X55041Y-189981D01*
G01Y-188201D01*
G01X55311Y-188011D01*
G01X57201D01*
G01X57401Y-188201D01*
G36*
G01X353860Y-164784D02*
G01X353860Y-163004D01*
G01X354130Y-162814D01*
G01X356020D01*
G01X356220Y-163004D01*
G01Y-164784D01*
G01X356020Y-164974D01*
G01X354130D01*
G01X353860Y-164784D01*
G37*
G01X353860Y-164784D02*
G01X353860Y-163004D01*
G01X354130Y-162814D01*
G01X356020D01*
G01X356220Y-163004D01*
G01Y-164784D01*
G01X356020Y-164974D01*
G01X354130D01*
G01X353860Y-164784D01*
G36*
G01X350080Y-164784D02*
G01X350080Y-163004D01*
G01X350280Y-162814D01*
G01X352170D01*
G01X352440Y-163004D01*
G01Y-164784D01*
G01X352170Y-164974D01*
G01X350280D01*
G01X350080Y-164784D01*
G37*
G01X350080Y-164784D02*
G01X350080Y-163004D01*
G01X350280Y-162814D01*
G01X352170D01*
G01X352440Y-163004D01*
G01Y-164784D01*
G01X352170Y-164974D01*
G01X350280D01*
G01X350080Y-164784D01*
G36*
G01X107951Y-188201D02*
G01X107951Y-189981D01*
G01X107681Y-190171D01*
G01X105791D01*
G01X105591Y-189981D01*
G01Y-188201D01*
G01X105791Y-188011D01*
G01X107681D01*
G01X107951Y-188201D01*
G37*
G01X107951Y-188201D02*
G01X107951Y-189981D01*
G01X107681Y-190171D01*
G01X105791D01*
G01X105591Y-189981D01*
G01Y-188201D01*
G01X105791Y-188011D01*
G01X107681D01*
G01X107951Y-188201D01*
G36*
G01X111731Y-188201D02*
G01X111731Y-189981D01*
G01X111531Y-190171D01*
G01X109641D01*
G01X109371Y-189981D01*
G01Y-188201D01*
G01X109641Y-188011D01*
G01X111531D01*
G01X111731Y-188201D01*
G37*
G01X111731Y-188201D02*
G01X111731Y-189981D01*
G01X111531Y-190171D01*
G01X109641D01*
G01X109371Y-189981D01*
G01Y-188201D01*
G01X109641Y-188011D01*
G01X111531D01*
G01X111731Y-188201D01*
G36*
G01X299529Y-164784D02*
G01X299529Y-163004D01*
G01X299799Y-162814D01*
G01X301689D01*
G01X301889Y-163004D01*
G01Y-164784D01*
G01X301689Y-164974D01*
G01X299799D01*
G01X299529Y-164784D01*
G37*
G01X299529Y-164784D02*
G01X299529Y-163004D01*
G01X299799Y-162814D01*
G01X301689D01*
G01X301889Y-163004D01*
G01Y-164784D01*
G01X301689Y-164974D01*
G01X299799D01*
G01X299529Y-164784D01*
G36*
G01X295749Y-164784D02*
G01X295749Y-163004D01*
G01X295949Y-162814D01*
G01X297839D01*
G01X298109Y-163004D01*
G01Y-164784D01*
G01X297839Y-164974D01*
G01X295949D01*
G01X295749Y-164784D01*
G37*
G01X295749Y-164784D02*
G01X295749Y-163004D01*
G01X295949Y-162814D01*
G01X297839D01*
G01X298109Y-163004D01*
G01Y-164784D01*
G01X297839Y-164974D01*
G01X295949D01*
G01X295749Y-164784D01*
G36*
G01X162282Y-188201D02*
G01X162282Y-189981D01*
G01X162012Y-190171D01*
G01X160122D01*
G01X159922Y-189981D01*
G01Y-188201D01*
G01X160122Y-188011D01*
G01X162012D01*
G01X162282Y-188201D01*
G37*
G01X162282Y-188201D02*
G01X162282Y-189981D01*
G01X162012Y-190171D01*
G01X160122D01*
G01X159922Y-189981D01*
G01Y-188201D01*
G01X160122Y-188011D01*
G01X162012D01*
G01X162282Y-188201D01*
G36*
G01X166062Y-188201D02*
G01X166062Y-189981D01*
G01X165862Y-190171D01*
G01X163972D01*
G01X163702Y-189981D01*
G01Y-188201D01*
G01X163972Y-188011D01*
G01X165862D01*
G01X166062Y-188201D01*
G37*
G01X166062Y-188201D02*
G01X166062Y-189981D01*
G01X165862Y-190171D01*
G01X163972D01*
G01X163702Y-189981D01*
G01Y-188201D01*
G01X163972Y-188011D01*
G01X165862D01*
G01X166062Y-188201D01*
G36*
G01X245198Y-164784D02*
G01X245198Y-163004D01*
G01X245468Y-162814D01*
G01X247358D01*
G01X247558Y-163004D01*
G01Y-164784D01*
G01X247358Y-164974D01*
G01X245468D01*
G01X245198Y-164784D01*
G37*
G01X245198Y-164784D02*
G01X245198Y-163004D01*
G01X245468Y-162814D01*
G01X247358D01*
G01X247558Y-163004D01*
G01Y-164784D01*
G01X247358Y-164974D01*
G01X245468D01*
G01X245198Y-164784D01*
G36*
G01X241418Y-164784D02*
G01X241418Y-163004D01*
G01X241618Y-162814D01*
G01X243508D01*
G01X243778Y-163004D01*
G01Y-164784D01*
G01X243508Y-164974D01*
G01X241618D01*
G01X241418Y-164784D01*
G37*
G01X241418Y-164784D02*
G01X241418Y-163004D01*
G01X241618Y-162814D01*
G01X243508D01*
G01X243778Y-163004D01*
G01Y-164784D01*
G01X243508Y-164974D01*
G01X241618D01*
G01X241418Y-164784D01*
G36*
G01X216613Y-188201D02*
G01X216613Y-189981D01*
G01X216343Y-190171D01*
G01X214453D01*
G01X214253Y-189981D01*
G01Y-188201D01*
G01X214453Y-188011D01*
G01X216343D01*
G01X216613Y-188201D01*
G37*
G01X216613Y-188201D02*
G01X216613Y-189981D01*
G01X216343Y-190171D01*
G01X214453D01*
G01X214253Y-189981D01*
G01Y-188201D01*
G01X214453Y-188011D01*
G01X216343D01*
G01X216613Y-188201D01*
G36*
G01X220393Y-188201D02*
G01X220393Y-189981D01*
G01X220193Y-190171D01*
G01X218303D01*
G01X218033Y-189981D01*
G01Y-188201D01*
G01X218303Y-188011D01*
G01X220193D01*
G01X220393Y-188201D01*
G37*
G01X220393Y-188201D02*
G01X220393Y-189981D01*
G01X220193Y-190171D01*
G01X218303D01*
G01X218033Y-189981D01*
G01Y-188201D01*
G01X218303Y-188011D01*
G01X220193D01*
G01X220393Y-188201D01*
G36*
G01X190867Y-164784D02*
G01X190867Y-163004D01*
G01X191137Y-162814D01*
G01X193027D01*
G01X193227Y-163004D01*
G01Y-164784D01*
G01X193027Y-164974D01*
G01X191137D01*
G01X190867Y-164784D01*
G37*
G01X190867Y-164784D02*
G01X190867Y-163004D01*
G01X191137Y-162814D01*
G01X193027D01*
G01X193227Y-163004D01*
G01Y-164784D01*
G01X193027Y-164974D01*
G01X191137D01*
G01X190867Y-164784D01*
G36*
G01X187087Y-164784D02*
G01X187087Y-163004D01*
G01X187287Y-162814D01*
G01X189177D01*
G01X189447Y-163004D01*
G01Y-164784D01*
G01X189177Y-164974D01*
G01X187287D01*
G01X187087Y-164784D01*
G37*
G01X187087Y-164784D02*
G01X187087Y-163004D01*
G01X187287Y-162814D01*
G01X189177D01*
G01X189447Y-163004D01*
G01Y-164784D01*
G01X189177Y-164974D01*
G01X187287D01*
G01X187087Y-164784D01*
G36*
G01X270944Y-188201D02*
G01X270944Y-189981D01*
G01X270674Y-190171D01*
G01X268784D01*
G01X268584Y-189981D01*
G01Y-188201D01*
G01X268784Y-188011D01*
G01X270674D01*
G01X270944Y-188201D01*
G37*
G01X270944Y-188201D02*
G01X270944Y-189981D01*
G01X270674Y-190171D01*
G01X268784D01*
G01X268584Y-189981D01*
G01Y-188201D01*
G01X268784Y-188011D01*
G01X270674D01*
G01X270944Y-188201D01*
G36*
G01X274724Y-188201D02*
G01X274724Y-189981D01*
G01X274524Y-190171D01*
G01X272634D01*
G01X272364Y-189981D01*
G01Y-188201D01*
G01X272634Y-188011D01*
G01X274524D01*
G01X274724Y-188201D01*
G37*
G01X274724Y-188201D02*
G01X274724Y-189981D01*
G01X274524Y-190171D01*
G01X272634D01*
G01X272364Y-189981D01*
G01Y-188201D01*
G01X272634Y-188011D01*
G01X274524D01*
G01X274724Y-188201D01*
G36*
G01X136537Y-164784D02*
G01X136537Y-163004D01*
G01X136807Y-162814D01*
G01X138697D01*
G01X138897Y-163004D01*
G01Y-164784D01*
G01X138697Y-164974D01*
G01X136807D01*
G01X136537Y-164784D01*
G37*
G01X136537Y-164784D02*
G01X136537Y-163004D01*
G01X136807Y-162814D01*
G01X138697D01*
G01X138897Y-163004D01*
G01Y-164784D01*
G01X138697Y-164974D01*
G01X136807D01*
G01X136537Y-164784D01*
G36*
G01X132757Y-164784D02*
G01X132757Y-163004D01*
G01X132957Y-162814D01*
G01X134847D01*
G01X135117Y-163004D01*
G01Y-164784D01*
G01X134847Y-164974D01*
G01X132957D01*
G01X132757Y-164784D01*
G37*
G01X132757Y-164784D02*
G01X132757Y-163004D01*
G01X132957Y-162814D01*
G01X134847D01*
G01X135117Y-163004D01*
G01Y-164784D01*
G01X134847Y-164974D01*
G01X132957D01*
G01X132757Y-164784D01*
G36*
G01X325274Y-188201D02*
G01X325274Y-189981D01*
G01X325004Y-190171D01*
G01X323114D01*
G01X322914Y-189981D01*
G01Y-188201D01*
G01X323114Y-188011D01*
G01X325004D01*
G01X325274Y-188201D01*
G37*
G01X325274Y-188201D02*
G01X325274Y-189981D01*
G01X325004Y-190171D01*
G01X323114D01*
G01X322914Y-189981D01*
G01Y-188201D01*
G01X323114Y-188011D01*
G01X325004D01*
G01X325274Y-188201D01*
G36*
G01X329054Y-188201D02*
G01X329054Y-189981D01*
G01X328854Y-190171D01*
G01X326964D01*
G01X326694Y-189981D01*
G01Y-188201D01*
G01X326964Y-188011D01*
G01X328854D01*
G01X329054Y-188201D01*
G37*
G01X329054Y-188201D02*
G01X329054Y-189981D01*
G01X328854Y-190171D01*
G01X326964D01*
G01X326694Y-189981D01*
G01Y-188201D01*
G01X326964Y-188011D01*
G01X328854D01*
G01X329054Y-188201D01*
G36*
G01X82206Y-164784D02*
G01X82206Y-163004D01*
G01X82476Y-162814D01*
G01X84366D01*
G01X84566Y-163004D01*
G01Y-164784D01*
G01X84366Y-164974D01*
G01X82476D01*
G01X82206Y-164784D01*
G37*
G01X82206Y-164784D02*
G01X82206Y-163004D01*
G01X82476Y-162814D01*
G01X84366D01*
G01X84566Y-163004D01*
G01Y-164784D01*
G01X84366Y-164974D01*
G01X82476D01*
G01X82206Y-164784D01*
G36*
G01X78426Y-164784D02*
G01X78426Y-163004D01*
G01X78626Y-162814D01*
G01X80516D01*
G01X80786Y-163004D01*
G01Y-164784D01*
G01X80516Y-164974D01*
G01X78626D01*
G01X78426Y-164784D01*
G37*
G01X78426Y-164784D02*
G01X78426Y-163004D01*
G01X78626Y-162814D01*
G01X80516D01*
G01X80786Y-163004D01*
G01Y-164784D01*
G01X80516Y-164974D01*
G01X78626D01*
G01X78426Y-164784D01*
G36*
G01X379605Y-188201D02*
G01X379605Y-189981D01*
G01X379335Y-190171D01*
G01X377445D01*
G01X377245Y-189981D01*
G01Y-188201D01*
G01X377445Y-188011D01*
G01X379335D01*
G01X379605Y-188201D01*
G37*
G01X379605Y-188201D02*
G01X379605Y-189981D01*
G01X379335Y-190171D01*
G01X377445D01*
G01X377245Y-189981D01*
G01Y-188201D01*
G01X377445Y-188011D01*
G01X379335D01*
G01X379605Y-188201D01*
G36*
G01X383385Y-188201D02*
G01X383385Y-189981D01*
G01X383185Y-190171D01*
G01X381295D01*
G01X381025Y-189981D01*
G01Y-188201D01*
G01X381295Y-188011D01*
G01X383185D01*
G01X383385Y-188201D01*
G37*
G01X383385Y-188201D02*
G01X383385Y-189981D01*
G01X383185Y-190171D01*
G01X381295D01*
G01X381025Y-189981D01*
G01Y-188201D01*
G01X381295Y-188011D01*
G01X383185D01*
G01X383385Y-188201D01*
G36*
G01X408190Y-164784D02*
G01X408190Y-163004D01*
G01X408460Y-162814D01*
G01X410350D01*
G01X410550Y-163004D01*
G01Y-164784D01*
G01X410350Y-164974D01*
G01X408460D01*
G01X408190Y-164784D01*
G37*
G01X408190Y-164784D02*
G01X408190Y-163004D01*
G01X408460Y-162814D01*
G01X410350D01*
G01X410550Y-163004D01*
G01Y-164784D01*
G01X410350Y-164974D01*
G01X408460D01*
G01X408190Y-164784D01*
G36*
G01X404410Y-164784D02*
G01X404410Y-163004D01*
G01X404610Y-162814D01*
G01X406500D01*
G01X406770Y-163004D01*
G01Y-164784D01*
G01X406500Y-164974D01*
G01X404610D01*
G01X404410Y-164784D01*
G37*
G01X404410Y-164784D02*
G01X404410Y-163004D01*
G01X404610Y-162814D01*
G01X406500D01*
G01X406770Y-163004D01*
G01Y-164784D01*
G01X406500Y-164974D01*
G01X404610D01*
G01X404410Y-164784D01*
G36*
G01X433936Y-188201D02*
G01X433936Y-189981D01*
G01X433666Y-190171D01*
G01X431776D01*
G01X431576Y-189981D01*
G01Y-188201D01*
G01X431776Y-188011D01*
G01X433666D01*
G01X433936Y-188201D01*
G37*
G01X433936Y-188201D02*
G01X433936Y-189981D01*
G01X433666Y-190171D01*
G01X431776D01*
G01X431576Y-189981D01*
G01Y-188201D01*
G01X431776Y-188011D01*
G01X433666D01*
G01X433936Y-188201D01*
G36*
G01X437716Y-188201D02*
G01X437716Y-189981D01*
G01X437516Y-190171D01*
G01X435626D01*
G01X435356Y-189981D01*
G01Y-188201D01*
G01X435626Y-188011D01*
G01X437516D01*
G01X437716Y-188201D01*
G37*
G01X437716Y-188201D02*
G01X437716Y-189981D01*
G01X437516Y-190171D01*
G01X435626D01*
G01X435356Y-189981D01*
G01Y-188201D01*
G01X435626Y-188011D01*
G01X437516D01*
G01X437716Y-188201D01*
G36*
G01X27875Y-215177D02*
G01X27875Y-213397D01*
G01X28145Y-213207D01*
G01X30035D01*
G01X30235Y-213397D01*
G01Y-215177D01*
G01X30035Y-215367D01*
G01X28145D01*
G01X27875Y-215177D01*
G37*
G01X27875Y-215177D02*
G01X27875Y-213397D01*
G01X28145Y-213207D01*
G01X30035D01*
G01X30235Y-213397D01*
G01Y-215177D01*
G01X30035Y-215367D01*
G01X28145D01*
G01X27875Y-215177D01*
G36*
G01X24095Y-215177D02*
G01X24095Y-213397D01*
G01X24295Y-213207D01*
G01X26185D01*
G01X26455Y-213397D01*
G01Y-215177D01*
G01X26185Y-215367D01*
G01X24295D01*
G01X24095Y-215177D01*
G37*
G01X24095Y-215177D02*
G01X24095Y-213397D01*
G01X24295Y-213207D01*
G01X26185D01*
G01X26455Y-213397D01*
G01Y-215177D01*
G01X26185Y-215367D01*
G01X24295D01*
G01X24095Y-215177D01*
G36*
G01X53621Y-213397D02*
G01X53621Y-215177D01*
G01X53351Y-215367D01*
G01X51461D01*
G01X51261Y-215177D01*
G01Y-213397D01*
G01X51461Y-213207D01*
G01X53351D01*
G01X53621Y-213397D01*
G37*
G01X53621Y-213397D02*
G01X53621Y-215177D01*
G01X53351Y-215367D01*
G01X51461D01*
G01X51261Y-215177D01*
G01Y-213397D01*
G01X51461Y-213207D01*
G01X53351D01*
G01X53621Y-213397D01*
G36*
G01X57401Y-213397D02*
G01X57401Y-215177D01*
G01X57201Y-215367D01*
G01X55311D01*
G01X55041Y-215177D01*
G01Y-213397D01*
G01X55311Y-213207D01*
G01X57201D01*
G01X57401Y-213397D01*
G37*
G01X57401Y-213397D02*
G01X57401Y-215177D01*
G01X57201Y-215367D01*
G01X55311D01*
G01X55041Y-215177D01*
G01Y-213397D01*
G01X55311Y-213207D01*
G01X57201D01*
G01X57401Y-213397D01*
G36*
G01X353860Y-139587D02*
G01X353860Y-137807D01*
G01X354130Y-137617D01*
G01X356020D01*
G01X356220Y-137807D01*
G01Y-139587D01*
G01X356020Y-139777D01*
G01X354130D01*
G01X353860Y-139587D01*
G37*
G01X353860Y-139587D02*
G01X353860Y-137807D01*
G01X354130Y-137617D01*
G01X356020D01*
G01X356220Y-137807D01*
G01Y-139587D01*
G01X356020Y-139777D01*
G01X354130D01*
G01X353860Y-139587D01*
G36*
G01X350080Y-139587D02*
G01X350080Y-137807D01*
G01X350280Y-137617D01*
G01X352170D01*
G01X352440Y-137807D01*
G01Y-139587D01*
G01X352170Y-139777D01*
G01X350280D01*
G01X350080Y-139587D01*
G37*
G01X350080Y-139587D02*
G01X350080Y-137807D01*
G01X350280Y-137617D01*
G01X352170D01*
G01X352440Y-137807D01*
G01Y-139587D01*
G01X352170Y-139777D01*
G01X350280D01*
G01X350080Y-139587D01*
G36*
G01X107951Y-213397D02*
G01X107951Y-215177D01*
G01X107681Y-215367D01*
G01X105791D01*
G01X105591Y-215177D01*
G01Y-213397D01*
G01X105791Y-213207D01*
G01X107681D01*
G01X107951Y-213397D01*
G37*
G01X107951Y-213397D02*
G01X107951Y-215177D01*
G01X107681Y-215367D01*
G01X105791D01*
G01X105591Y-215177D01*
G01Y-213397D01*
G01X105791Y-213207D01*
G01X107681D01*
G01X107951Y-213397D01*
G36*
G01X111731Y-213397D02*
G01X111731Y-215177D01*
G01X111531Y-215367D01*
G01X109641D01*
G01X109371Y-215177D01*
G01Y-213397D01*
G01X109641Y-213207D01*
G01X111531D01*
G01X111731Y-213397D01*
G37*
G01X111731Y-213397D02*
G01X111731Y-215177D01*
G01X111531Y-215367D01*
G01X109641D01*
G01X109371Y-215177D01*
G01Y-213397D01*
G01X109641Y-213207D01*
G01X111531D01*
G01X111731Y-213397D01*
G36*
G01X299529Y-139587D02*
G01X299529Y-137807D01*
G01X299799Y-137617D01*
G01X301689D01*
G01X301889Y-137807D01*
G01Y-139587D01*
G01X301689Y-139777D01*
G01X299799D01*
G01X299529Y-139587D01*
G37*
G01X299529Y-139587D02*
G01X299529Y-137807D01*
G01X299799Y-137617D01*
G01X301689D01*
G01X301889Y-137807D01*
G01Y-139587D01*
G01X301689Y-139777D01*
G01X299799D01*
G01X299529Y-139587D01*
G36*
G01X295749Y-139587D02*
G01X295749Y-137807D01*
G01X295949Y-137617D01*
G01X297839D01*
G01X298109Y-137807D01*
G01Y-139587D01*
G01X297839Y-139777D01*
G01X295949D01*
G01X295749Y-139587D01*
G37*
G01X295749Y-139587D02*
G01X295749Y-137807D01*
G01X295949Y-137617D01*
G01X297839D01*
G01X298109Y-137807D01*
G01Y-139587D01*
G01X297839Y-139777D01*
G01X295949D01*
G01X295749Y-139587D01*
G36*
G01X162282Y-213397D02*
G01X162282Y-215177D01*
G01X162012Y-215367D01*
G01X160122D01*
G01X159922Y-215177D01*
G01Y-213397D01*
G01X160122Y-213207D01*
G01X162012D01*
G01X162282Y-213397D01*
G37*
G01X162282Y-213397D02*
G01X162282Y-215177D01*
G01X162012Y-215367D01*
G01X160122D01*
G01X159922Y-215177D01*
G01Y-213397D01*
G01X160122Y-213207D01*
G01X162012D01*
G01X162282Y-213397D01*
G36*
G01X166062Y-213397D02*
G01X166062Y-215177D01*
G01X165862Y-215367D01*
G01X163972D01*
G01X163702Y-215177D01*
G01Y-213397D01*
G01X163972Y-213207D01*
G01X165862D01*
G01X166062Y-213397D01*
G37*
G01X166062Y-213397D02*
G01X166062Y-215177D01*
G01X165862Y-215367D01*
G01X163972D01*
G01X163702Y-215177D01*
G01Y-213397D01*
G01X163972Y-213207D01*
G01X165862D01*
G01X166062Y-213397D01*
G36*
G01X245198Y-139587D02*
G01X245198Y-137807D01*
G01X245468Y-137617D01*
G01X247358D01*
G01X247558Y-137807D01*
G01Y-139587D01*
G01X247358Y-139777D01*
G01X245468D01*
G01X245198Y-139587D01*
G37*
G01X245198Y-139587D02*
G01X245198Y-137807D01*
G01X245468Y-137617D01*
G01X247358D01*
G01X247558Y-137807D01*
G01Y-139587D01*
G01X247358Y-139777D01*
G01X245468D01*
G01X245198Y-139587D01*
G36*
G01X241418Y-139587D02*
G01X241418Y-137807D01*
G01X241618Y-137617D01*
G01X243508D01*
G01X243778Y-137807D01*
G01Y-139587D01*
G01X243508Y-139777D01*
G01X241618D01*
G01X241418Y-139587D01*
G37*
G01X241418Y-139587D02*
G01X241418Y-137807D01*
G01X241618Y-137617D01*
G01X243508D01*
G01X243778Y-137807D01*
G01Y-139587D01*
G01X243508Y-139777D01*
G01X241618D01*
G01X241418Y-139587D01*
G36*
G01X216613Y-213397D02*
G01X216613Y-215177D01*
G01X216343Y-215367D01*
G01X214453D01*
G01X214253Y-215177D01*
G01Y-213397D01*
G01X214453Y-213207D01*
G01X216343D01*
G01X216613Y-213397D01*
G37*
G01X216613Y-213397D02*
G01X216613Y-215177D01*
G01X216343Y-215367D01*
G01X214453D01*
G01X214253Y-215177D01*
G01Y-213397D01*
G01X214453Y-213207D01*
G01X216343D01*
G01X216613Y-213397D01*
G36*
G01X220393Y-213397D02*
G01X220393Y-215177D01*
G01X220193Y-215367D01*
G01X218303D01*
G01X218033Y-215177D01*
G01Y-213397D01*
G01X218303Y-213207D01*
G01X220193D01*
G01X220393Y-213397D01*
G37*
G01X220393Y-213397D02*
G01X220393Y-215177D01*
G01X220193Y-215367D01*
G01X218303D01*
G01X218033Y-215177D01*
G01Y-213397D01*
G01X218303Y-213207D01*
G01X220193D01*
G01X220393Y-213397D01*
G36*
G01X190867Y-139587D02*
G01X190867Y-137807D01*
G01X191137Y-137617D01*
G01X193027D01*
G01X193227Y-137807D01*
G01Y-139587D01*
G01X193027Y-139777D01*
G01X191137D01*
G01X190867Y-139587D01*
G37*
G01X190867Y-139587D02*
G01X190867Y-137807D01*
G01X191137Y-137617D01*
G01X193027D01*
G01X193227Y-137807D01*
G01Y-139587D01*
G01X193027Y-139777D01*
G01X191137D01*
G01X190867Y-139587D01*
G36*
G01X187087Y-139587D02*
G01X187087Y-137807D01*
G01X187287Y-137617D01*
G01X189177D01*
G01X189447Y-137807D01*
G01Y-139587D01*
G01X189177Y-139777D01*
G01X187287D01*
G01X187087Y-139587D01*
G37*
G01X187087Y-139587D02*
G01X187087Y-137807D01*
G01X187287Y-137617D01*
G01X189177D01*
G01X189447Y-137807D01*
G01Y-139587D01*
G01X189177Y-139777D01*
G01X187287D01*
G01X187087Y-139587D01*
G36*
G01X270944Y-213397D02*
G01X270944Y-215177D01*
G01X270674Y-215367D01*
G01X268784D01*
G01X268584Y-215177D01*
G01Y-213397D01*
G01X268784Y-213207D01*
G01X270674D01*
G01X270944Y-213397D01*
G37*
G01X270944Y-213397D02*
G01X270944Y-215177D01*
G01X270674Y-215367D01*
G01X268784D01*
G01X268584Y-215177D01*
G01Y-213397D01*
G01X268784Y-213207D01*
G01X270674D01*
G01X270944Y-213397D01*
G36*
G01X274724Y-213397D02*
G01X274724Y-215177D01*
G01X274524Y-215367D01*
G01X272634D01*
G01X272364Y-215177D01*
G01Y-213397D01*
G01X272634Y-213207D01*
G01X274524D01*
G01X274724Y-213397D01*
G37*
G01X274724Y-213397D02*
G01X274724Y-215177D01*
G01X274524Y-215367D01*
G01X272634D01*
G01X272364Y-215177D01*
G01Y-213397D01*
G01X272634Y-213207D01*
G01X274524D01*
G01X274724Y-213397D01*
G36*
G01X136537Y-139587D02*
G01X136537Y-137807D01*
G01X136807Y-137617D01*
G01X138697D01*
G01X138897Y-137807D01*
G01Y-139587D01*
G01X138697Y-139777D01*
G01X136807D01*
G01X136537Y-139587D01*
G37*
G01X136537Y-139587D02*
G01X136537Y-137807D01*
G01X136807Y-137617D01*
G01X138697D01*
G01X138897Y-137807D01*
G01Y-139587D01*
G01X138697Y-139777D01*
G01X136807D01*
G01X136537Y-139587D01*
G36*
G01X132757Y-139587D02*
G01X132757Y-137807D01*
G01X132957Y-137617D01*
G01X134847D01*
G01X135117Y-137807D01*
G01Y-139587D01*
G01X134847Y-139777D01*
G01X132957D01*
G01X132757Y-139587D01*
G37*
G01X132757Y-139587D02*
G01X132757Y-137807D01*
G01X132957Y-137617D01*
G01X134847D01*
G01X135117Y-137807D01*
G01Y-139587D01*
G01X134847Y-139777D01*
G01X132957D01*
G01X132757Y-139587D01*
G36*
G01X325274Y-213397D02*
G01X325274Y-215177D01*
G01X325004Y-215367D01*
G01X323114D01*
G01X322914Y-215177D01*
G01Y-213397D01*
G01X323114Y-213207D01*
G01X325004D01*
G01X325274Y-213397D01*
G37*
G01X325274Y-213397D02*
G01X325274Y-215177D01*
G01X325004Y-215367D01*
G01X323114D01*
G01X322914Y-215177D01*
G01Y-213397D01*
G01X323114Y-213207D01*
G01X325004D01*
G01X325274Y-213397D01*
G36*
G01X329054Y-213397D02*
G01X329054Y-215177D01*
G01X328854Y-215367D01*
G01X326964D01*
G01X326694Y-215177D01*
G01Y-213397D01*
G01X326964Y-213207D01*
G01X328854D01*
G01X329054Y-213397D01*
G37*
G01X329054Y-213397D02*
G01X329054Y-215177D01*
G01X328854Y-215367D01*
G01X326964D01*
G01X326694Y-215177D01*
G01Y-213397D01*
G01X326964Y-213207D01*
G01X328854D01*
G01X329054Y-213397D01*
G36*
G01X82206Y-139587D02*
G01X82206Y-137807D01*
G01X82476Y-137617D01*
G01X84366D01*
G01X84566Y-137807D01*
G01Y-139587D01*
G01X84366Y-139777D01*
G01X82476D01*
G01X82206Y-139587D01*
G37*
G01X82206Y-139587D02*
G01X82206Y-137807D01*
G01X82476Y-137617D01*
G01X84366D01*
G01X84566Y-137807D01*
G01Y-139587D01*
G01X84366Y-139777D01*
G01X82476D01*
G01X82206Y-139587D01*
G36*
G01X78426Y-139587D02*
G01X78426Y-137807D01*
G01X78626Y-137617D01*
G01X80516D01*
G01X80786Y-137807D01*
G01Y-139587D01*
G01X80516Y-139777D01*
G01X78626D01*
G01X78426Y-139587D01*
G37*
G01X78426Y-139587D02*
G01X78426Y-137807D01*
G01X78626Y-137617D01*
G01X80516D01*
G01X80786Y-137807D01*
G01Y-139587D01*
G01X80516Y-139777D01*
G01X78626D01*
G01X78426Y-139587D01*
G36*
G01X379605Y-213397D02*
G01X379605Y-215177D01*
G01X379335Y-215367D01*
G01X377445D01*
G01X377245Y-215177D01*
G01Y-213397D01*
G01X377445Y-213207D01*
G01X379335D01*
G01X379605Y-213397D01*
G37*
G01X379605Y-213397D02*
G01X379605Y-215177D01*
G01X379335Y-215367D01*
G01X377445D01*
G01X377245Y-215177D01*
G01Y-213397D01*
G01X377445Y-213207D01*
G01X379335D01*
G01X379605Y-213397D01*
G36*
G01X383385Y-213397D02*
G01X383385Y-215177D01*
G01X383185Y-215367D01*
G01X381295D01*
G01X381025Y-215177D01*
G01Y-213397D01*
G01X381295Y-213207D01*
G01X383185D01*
G01X383385Y-213397D01*
G37*
G01X383385Y-213397D02*
G01X383385Y-215177D01*
G01X383185Y-215367D01*
G01X381295D01*
G01X381025Y-215177D01*
G01Y-213397D01*
G01X381295Y-213207D01*
G01X383185D01*
G01X383385Y-213397D01*
G36*
G01X408190Y-139587D02*
G01X408190Y-137807D01*
G01X408460Y-137617D01*
G01X410350D01*
G01X410550Y-137807D01*
G01Y-139587D01*
G01X410350Y-139777D01*
G01X408460D01*
G01X408190Y-139587D01*
G37*
G01X408190Y-139587D02*
G01X408190Y-137807D01*
G01X408460Y-137617D01*
G01X410350D01*
G01X410550Y-137807D01*
G01Y-139587D01*
G01X410350Y-139777D01*
G01X408460D01*
G01X408190Y-139587D01*
G36*
G01X404410Y-139587D02*
G01X404410Y-137807D01*
G01X404610Y-137617D01*
G01X406500D01*
G01X406770Y-137807D01*
G01Y-139587D01*
G01X406500Y-139777D01*
G01X404610D01*
G01X404410Y-139587D01*
G37*
G01X404410Y-139587D02*
G01X404410Y-137807D01*
G01X404610Y-137617D01*
G01X406500D01*
G01X406770Y-137807D01*
G01Y-139587D01*
G01X406500Y-139777D01*
G01X404610D01*
G01X404410Y-139587D01*
G36*
G01X433936Y-213397D02*
G01X433936Y-215177D01*
G01X433666Y-215367D01*
G01X431776D01*
G01X431576Y-215177D01*
G01Y-213397D01*
G01X431776Y-213207D01*
G01X433666D01*
G01X433936Y-213397D01*
G37*
G01X433936Y-213397D02*
G01X433936Y-215177D01*
G01X433666Y-215367D01*
G01X431776D01*
G01X431576Y-215177D01*
G01Y-213397D01*
G01X431776Y-213207D01*
G01X433666D01*
G01X433936Y-213397D01*
G36*
G01X437716Y-213397D02*
G01X437716Y-215177D01*
G01X437516Y-215367D01*
G01X435626D01*
G01X435356Y-215177D01*
G01Y-213397D01*
G01X435626Y-213207D01*
G01X437516D01*
G01X437716Y-213397D01*
G37*
G01X437716Y-213397D02*
G01X437716Y-215177D01*
G01X437516Y-215367D01*
G01X435626D01*
G01X435356Y-215177D01*
G01Y-213397D01*
G01X435626Y-213207D01*
G01X437516D01*
G01X437716Y-213397D01*
G36*
G01X27875Y-240374D02*
G01X27875Y-238594D01*
G01X28145Y-238404D01*
G01X30035D01*
G01X30235Y-238594D01*
G01Y-240374D01*
G01X30035Y-240564D01*
G01X28145D01*
G01X27875Y-240374D01*
G37*
G01X27875Y-240374D02*
G01X27875Y-238594D01*
G01X28145Y-238404D01*
G01X30035D01*
G01X30235Y-238594D01*
G01Y-240374D01*
G01X30035Y-240564D01*
G01X28145D01*
G01X27875Y-240374D01*
G36*
G01X24095Y-240374D02*
G01X24095Y-238594D01*
G01X24295Y-238404D01*
G01X26185D01*
G01X26455Y-238594D01*
G01Y-240374D01*
G01X26185Y-240564D01*
G01X24295D01*
G01X24095Y-240374D01*
G37*
G01X24095Y-240374D02*
G01X24095Y-238594D01*
G01X24295Y-238404D01*
G01X26185D01*
G01X26455Y-238594D01*
G01Y-240374D01*
G01X26185Y-240564D01*
G01X24295D01*
G01X24095Y-240374D01*
G36*
G01X53621Y-238594D02*
G01X53621Y-240374D01*
G01X53351Y-240564D01*
G01X51461D01*
G01X51261Y-240374D01*
G01Y-238594D01*
G01X51461Y-238404D01*
G01X53351D01*
G01X53621Y-238594D01*
G37*
G01X53621Y-238594D02*
G01X53621Y-240374D01*
G01X53351Y-240564D01*
G01X51461D01*
G01X51261Y-240374D01*
G01Y-238594D01*
G01X51461Y-238404D01*
G01X53351D01*
G01X53621Y-238594D01*
G36*
G01X57401Y-238594D02*
G01X57401Y-240374D01*
G01X57201Y-240564D01*
G01X55311D01*
G01X55041Y-240374D01*
G01Y-238594D01*
G01X55311Y-238404D01*
G01X57201D01*
G01X57401Y-238594D01*
G37*
G01X57401Y-238594D02*
G01X57401Y-240374D01*
G01X57201Y-240564D01*
G01X55311D01*
G01X55041Y-240374D01*
G01Y-238594D01*
G01X55311Y-238404D01*
G01X57201D01*
G01X57401Y-238594D01*
G36*
G01X353860Y-114390D02*
G01X353860Y-112610D01*
G01X354130Y-112420D01*
G01X356020D01*
G01X356220Y-112610D01*
G01Y-114390D01*
G01X356020Y-114580D01*
G01X354130D01*
G01X353860Y-114390D01*
G37*
G01X353860Y-114390D02*
G01X353860Y-112610D01*
G01X354130Y-112420D01*
G01X356020D01*
G01X356220Y-112610D01*
G01Y-114390D01*
G01X356020Y-114580D01*
G01X354130D01*
G01X353860Y-114390D01*
G36*
G01X350080Y-114390D02*
G01X350080Y-112610D01*
G01X350280Y-112420D01*
G01X352170D01*
G01X352440Y-112610D01*
G01Y-114390D01*
G01X352170Y-114580D01*
G01X350280D01*
G01X350080Y-114390D01*
G37*
G01X350080Y-114390D02*
G01X350080Y-112610D01*
G01X350280Y-112420D01*
G01X352170D01*
G01X352440Y-112610D01*
G01Y-114390D01*
G01X352170Y-114580D01*
G01X350280D01*
G01X350080Y-114390D01*
G36*
G01X107951Y-238594D02*
G01X107951Y-240374D01*
G01X107681Y-240564D01*
G01X105791D01*
G01X105591Y-240374D01*
G01Y-238594D01*
G01X105791Y-238404D01*
G01X107681D01*
G01X107951Y-238594D01*
G37*
G01X107951Y-238594D02*
G01X107951Y-240374D01*
G01X107681Y-240564D01*
G01X105791D01*
G01X105591Y-240374D01*
G01Y-238594D01*
G01X105791Y-238404D01*
G01X107681D01*
G01X107951Y-238594D01*
G36*
G01X111731Y-238594D02*
G01X111731Y-240374D01*
G01X111531Y-240564D01*
G01X109641D01*
G01X109371Y-240374D01*
G01Y-238594D01*
G01X109641Y-238404D01*
G01X111531D01*
G01X111731Y-238594D01*
G37*
G01X111731Y-238594D02*
G01X111731Y-240374D01*
G01X111531Y-240564D01*
G01X109641D01*
G01X109371Y-240374D01*
G01Y-238594D01*
G01X109641Y-238404D01*
G01X111531D01*
G01X111731Y-238594D01*
G36*
G01X299529Y-114390D02*
G01X299529Y-112610D01*
G01X299799Y-112420D01*
G01X301689D01*
G01X301889Y-112610D01*
G01Y-114390D01*
G01X301689Y-114580D01*
G01X299799D01*
G01X299529Y-114390D01*
G37*
G01X299529Y-114390D02*
G01X299529Y-112610D01*
G01X299799Y-112420D01*
G01X301689D01*
G01X301889Y-112610D01*
G01Y-114390D01*
G01X301689Y-114580D01*
G01X299799D01*
G01X299529Y-114390D01*
G36*
G01X295749Y-114390D02*
G01X295749Y-112610D01*
G01X295949Y-112420D01*
G01X297839D01*
G01X298109Y-112610D01*
G01Y-114390D01*
G01X297839Y-114580D01*
G01X295949D01*
G01X295749Y-114390D01*
G37*
G01X295749Y-114390D02*
G01X295749Y-112610D01*
G01X295949Y-112420D01*
G01X297839D01*
G01X298109Y-112610D01*
G01Y-114390D01*
G01X297839Y-114580D01*
G01X295949D01*
G01X295749Y-114390D01*
G36*
G01X162282Y-238594D02*
G01X162282Y-240374D01*
G01X162012Y-240564D01*
G01X160122D01*
G01X159922Y-240374D01*
G01Y-238594D01*
G01X160122Y-238404D01*
G01X162012D01*
G01X162282Y-238594D01*
G37*
G01X162282Y-238594D02*
G01X162282Y-240374D01*
G01X162012Y-240564D01*
G01X160122D01*
G01X159922Y-240374D01*
G01Y-238594D01*
G01X160122Y-238404D01*
G01X162012D01*
G01X162282Y-238594D01*
G36*
G01X166062Y-238594D02*
G01X166062Y-240374D01*
G01X165862Y-240564D01*
G01X163972D01*
G01X163702Y-240374D01*
G01Y-238594D01*
G01X163972Y-238404D01*
G01X165862D01*
G01X166062Y-238594D01*
G37*
G01X166062Y-238594D02*
G01X166062Y-240374D01*
G01X165862Y-240564D01*
G01X163972D01*
G01X163702Y-240374D01*
G01Y-238594D01*
G01X163972Y-238404D01*
G01X165862D01*
G01X166062Y-238594D01*
G36*
G01X245198Y-114390D02*
G01X245198Y-112610D01*
G01X245468Y-112420D01*
G01X247358D01*
G01X247558Y-112610D01*
G01Y-114390D01*
G01X247358Y-114580D01*
G01X245468D01*
G01X245198Y-114390D01*
G37*
G01X245198Y-114390D02*
G01X245198Y-112610D01*
G01X245468Y-112420D01*
G01X247358D01*
G01X247558Y-112610D01*
G01Y-114390D01*
G01X247358Y-114580D01*
G01X245468D01*
G01X245198Y-114390D01*
G36*
G01X241418Y-114390D02*
G01X241418Y-112610D01*
G01X241618Y-112420D01*
G01X243508D01*
G01X243778Y-112610D01*
G01Y-114390D01*
G01X243508Y-114580D01*
G01X241618D01*
G01X241418Y-114390D01*
G37*
G01X241418Y-114390D02*
G01X241418Y-112610D01*
G01X241618Y-112420D01*
G01X243508D01*
G01X243778Y-112610D01*
G01Y-114390D01*
G01X243508Y-114580D01*
G01X241618D01*
G01X241418Y-114390D01*
G36*
G01X216613Y-238594D02*
G01X216613Y-240374D01*
G01X216343Y-240564D01*
G01X214453D01*
G01X214253Y-240374D01*
G01Y-238594D01*
G01X214453Y-238404D01*
G01X216343D01*
G01X216613Y-238594D01*
G37*
G01X216613Y-238594D02*
G01X216613Y-240374D01*
G01X216343Y-240564D01*
G01X214453D01*
G01X214253Y-240374D01*
G01Y-238594D01*
G01X214453Y-238404D01*
G01X216343D01*
G01X216613Y-238594D01*
G36*
G01X220393Y-238594D02*
G01X220393Y-240374D01*
G01X220193Y-240564D01*
G01X218303D01*
G01X218033Y-240374D01*
G01Y-238594D01*
G01X218303Y-238404D01*
G01X220193D01*
G01X220393Y-238594D01*
G37*
G01X220393Y-238594D02*
G01X220393Y-240374D01*
G01X220193Y-240564D01*
G01X218303D01*
G01X218033Y-240374D01*
G01Y-238594D01*
G01X218303Y-238404D01*
G01X220193D01*
G01X220393Y-238594D01*
G36*
G01X190867Y-114390D02*
G01X190867Y-112610D01*
G01X191137Y-112420D01*
G01X193027D01*
G01X193227Y-112610D01*
G01Y-114390D01*
G01X193027Y-114580D01*
G01X191137D01*
G01X190867Y-114390D01*
G37*
G01X190867Y-114390D02*
G01X190867Y-112610D01*
G01X191137Y-112420D01*
G01X193027D01*
G01X193227Y-112610D01*
G01Y-114390D01*
G01X193027Y-114580D01*
G01X191137D01*
G01X190867Y-114390D01*
G36*
G01X187087Y-114390D02*
G01X187087Y-112610D01*
G01X187287Y-112420D01*
G01X189177D01*
G01X189447Y-112610D01*
G01Y-114390D01*
G01X189177Y-114580D01*
G01X187287D01*
G01X187087Y-114390D01*
G37*
G01X187087Y-114390D02*
G01X187087Y-112610D01*
G01X187287Y-112420D01*
G01X189177D01*
G01X189447Y-112610D01*
G01Y-114390D01*
G01X189177Y-114580D01*
G01X187287D01*
G01X187087Y-114390D01*
G36*
G01X270944Y-238594D02*
G01X270944Y-240374D01*
G01X270674Y-240564D01*
G01X268784D01*
G01X268584Y-240374D01*
G01Y-238594D01*
G01X268784Y-238404D01*
G01X270674D01*
G01X270944Y-238594D01*
G37*
G01X270944Y-238594D02*
G01X270944Y-240374D01*
G01X270674Y-240564D01*
G01X268784D01*
G01X268584Y-240374D01*
G01Y-238594D01*
G01X268784Y-238404D01*
G01X270674D01*
G01X270944Y-238594D01*
G36*
G01X274724Y-238594D02*
G01X274724Y-240374D01*
G01X274524Y-240564D01*
G01X272634D01*
G01X272364Y-240374D01*
G01Y-238594D01*
G01X272634Y-238404D01*
G01X274524D01*
G01X274724Y-238594D01*
G37*
G01X274724Y-238594D02*
G01X274724Y-240374D01*
G01X274524Y-240564D01*
G01X272634D01*
G01X272364Y-240374D01*
G01Y-238594D01*
G01X272634Y-238404D01*
G01X274524D01*
G01X274724Y-238594D01*
G36*
G01X136537Y-114390D02*
G01X136537Y-112610D01*
G01X136807Y-112420D01*
G01X138697D01*
G01X138897Y-112610D01*
G01Y-114390D01*
G01X138697Y-114580D01*
G01X136807D01*
G01X136537Y-114390D01*
G37*
G01X136537Y-114390D02*
G01X136537Y-112610D01*
G01X136807Y-112420D01*
G01X138697D01*
G01X138897Y-112610D01*
G01Y-114390D01*
G01X138697Y-114580D01*
G01X136807D01*
G01X136537Y-114390D01*
G36*
G01X132757Y-114390D02*
G01X132757Y-112610D01*
G01X132957Y-112420D01*
G01X134847D01*
G01X135117Y-112610D01*
G01Y-114390D01*
G01X134847Y-114580D01*
G01X132957D01*
G01X132757Y-114390D01*
G37*
G01X132757Y-114390D02*
G01X132757Y-112610D01*
G01X132957Y-112420D01*
G01X134847D01*
G01X135117Y-112610D01*
G01Y-114390D01*
G01X134847Y-114580D01*
G01X132957D01*
G01X132757Y-114390D01*
G36*
G01X325274Y-238594D02*
G01X325274Y-240374D01*
G01X325004Y-240564D01*
G01X323114D01*
G01X322914Y-240374D01*
G01Y-238594D01*
G01X323114Y-238404D01*
G01X325004D01*
G01X325274Y-238594D01*
G37*
G01X325274Y-238594D02*
G01X325274Y-240374D01*
G01X325004Y-240564D01*
G01X323114D01*
G01X322914Y-240374D01*
G01Y-238594D01*
G01X323114Y-238404D01*
G01X325004D01*
G01X325274Y-238594D01*
G36*
G01X329054Y-238594D02*
G01X329054Y-240374D01*
G01X328854Y-240564D01*
G01X326964D01*
G01X326694Y-240374D01*
G01Y-238594D01*
G01X326964Y-238404D01*
G01X328854D01*
G01X329054Y-238594D01*
G37*
G01X329054Y-238594D02*
G01X329054Y-240374D01*
G01X328854Y-240564D01*
G01X326964D01*
G01X326694Y-240374D01*
G01Y-238594D01*
G01X326964Y-238404D01*
G01X328854D01*
G01X329054Y-238594D01*
G36*
G01X82206Y-114390D02*
G01X82206Y-112610D01*
G01X82476Y-112420D01*
G01X84366D01*
G01X84566Y-112610D01*
G01Y-114390D01*
G01X84366Y-114580D01*
G01X82476D01*
G01X82206Y-114390D01*
G37*
G01X82206Y-114390D02*
G01X82206Y-112610D01*
G01X82476Y-112420D01*
G01X84366D01*
G01X84566Y-112610D01*
G01Y-114390D01*
G01X84366Y-114580D01*
G01X82476D01*
G01X82206Y-114390D01*
G36*
G01X78426Y-114390D02*
G01X78426Y-112610D01*
G01X78626Y-112420D01*
G01X80516D01*
G01X80786Y-112610D01*
G01Y-114390D01*
G01X80516Y-114580D01*
G01X78626D01*
G01X78426Y-114390D01*
G37*
G01X78426Y-114390D02*
G01X78426Y-112610D01*
G01X78626Y-112420D01*
G01X80516D01*
G01X80786Y-112610D01*
G01Y-114390D01*
G01X80516Y-114580D01*
G01X78626D01*
G01X78426Y-114390D01*
G36*
G01X379605Y-238594D02*
G01X379605Y-240374D01*
G01X379335Y-240564D01*
G01X377445D01*
G01X377245Y-240374D01*
G01Y-238594D01*
G01X377445Y-238404D01*
G01X379335D01*
G01X379605Y-238594D01*
G37*
G01X379605Y-238594D02*
G01X379605Y-240374D01*
G01X379335Y-240564D01*
G01X377445D01*
G01X377245Y-240374D01*
G01Y-238594D01*
G01X377445Y-238404D01*
G01X379335D01*
G01X379605Y-238594D01*
G36*
G01X383385Y-238594D02*
G01X383385Y-240374D01*
G01X383185Y-240564D01*
G01X381295D01*
G01X381025Y-240374D01*
G01Y-238594D01*
G01X381295Y-238404D01*
G01X383185D01*
G01X383385Y-238594D01*
G37*
G01X383385Y-238594D02*
G01X383385Y-240374D01*
G01X383185Y-240564D01*
G01X381295D01*
G01X381025Y-240374D01*
G01Y-238594D01*
G01X381295Y-238404D01*
G01X383185D01*
G01X383385Y-238594D01*
G36*
G01X408190Y-114390D02*
G01X408190Y-112610D01*
G01X408460Y-112420D01*
G01X410350D01*
G01X410550Y-112610D01*
G01Y-114390D01*
G01X410350Y-114580D01*
G01X408460D01*
G01X408190Y-114390D01*
G37*
G01X408190Y-114390D02*
G01X408190Y-112610D01*
G01X408460Y-112420D01*
G01X410350D01*
G01X410550Y-112610D01*
G01Y-114390D01*
G01X410350Y-114580D01*
G01X408460D01*
G01X408190Y-114390D01*
G36*
G01X404410Y-114390D02*
G01X404410Y-112610D01*
G01X404610Y-112420D01*
G01X406500D01*
G01X406770Y-112610D01*
G01Y-114390D01*
G01X406500Y-114580D01*
G01X404610D01*
G01X404410Y-114390D01*
G37*
G01X404410Y-114390D02*
G01X404410Y-112610D01*
G01X404610Y-112420D01*
G01X406500D01*
G01X406770Y-112610D01*
G01Y-114390D01*
G01X406500Y-114580D01*
G01X404610D01*
G01X404410Y-114390D01*
G36*
G01X433936Y-238594D02*
G01X433936Y-240374D01*
G01X433666Y-240564D01*
G01X431776D01*
G01X431576Y-240374D01*
G01Y-238594D01*
G01X431776Y-238404D01*
G01X433666D01*
G01X433936Y-238594D01*
G37*
G01X433936Y-238594D02*
G01X433936Y-240374D01*
G01X433666Y-240564D01*
G01X431776D01*
G01X431576Y-240374D01*
G01Y-238594D01*
G01X431776Y-238404D01*
G01X433666D01*
G01X433936Y-238594D01*
G36*
G01X437716Y-238594D02*
G01X437716Y-240374D01*
G01X437516Y-240564D01*
G01X435626D01*
G01X435356Y-240374D01*
G01Y-238594D01*
G01X435626Y-238404D01*
G01X437516D01*
G01X437716Y-238594D01*
G37*
G01X437716Y-238594D02*
G01X437716Y-240374D01*
G01X437516Y-240564D01*
G01X435626D01*
G01X435356Y-240374D01*
G01Y-238594D01*
G01X435626Y-238404D01*
G01X437516D01*
G01X437716Y-238594D01*
G36*
G01X463210Y-13390D02*
G01X463210Y-11610D01*
G01X463480Y-11420D01*
G01X465370D01*
G01X465570Y-11610D01*
G01Y-13390D01*
G01X465370Y-13580D01*
G01X463480D01*
G01X463210Y-13390D01*
G37*
G01X463210Y-13390D02*
G01X463210Y-11610D01*
G01X463480Y-11420D01*
G01X465370D01*
G01X465570Y-11610D01*
G01Y-13390D01*
G01X465370Y-13580D01*
G01X463480D01*
G01X463210Y-13390D01*
G36*
G01X459430Y-13390D02*
G01X459430Y-11610D01*
G01X459630Y-11420D01*
G01X461520D01*
G01X461790Y-11610D01*
G01Y-13390D01*
G01X461520Y-13580D01*
G01X459630D01*
G01X459430Y-13390D01*
G37*
G01X459430Y-13390D02*
G01X459430Y-11610D01*
G01X459630Y-11420D01*
G01X461520D01*
G01X461790Y-11610D01*
G01Y-13390D01*
G01X461520Y-13580D01*
G01X459630D01*
G01X459430Y-13390D01*
G36*
G01X463210Y-139507D02*
G01X463210Y-137727D01*
G01X463480Y-137537D01*
G01X465370D01*
G01X465570Y-137727D01*
G01Y-139507D01*
G01X465370Y-139697D01*
G01X463480D01*
G01X463210Y-139507D01*
G37*
G01X463210Y-139507D02*
G01X463210Y-137727D01*
G01X463480Y-137537D01*
G01X465370D01*
G01X465570Y-137727D01*
G01Y-139507D01*
G01X465370Y-139697D01*
G01X463480D01*
G01X463210Y-139507D01*
G36*
G01X459430Y-139507D02*
G01X459430Y-137727D01*
G01X459630Y-137537D01*
G01X461520D01*
G01X461790Y-137727D01*
G01Y-139507D01*
G01X461520Y-139697D01*
G01X459630D01*
G01X459430Y-139507D01*
G37*
G01X459430Y-139507D02*
G01X459430Y-137727D01*
G01X459630Y-137537D01*
G01X461520D01*
G01X461790Y-137727D01*
G01Y-139507D01*
G01X461520Y-139697D01*
G01X459630D01*
G01X459430Y-139507D01*
G36*
G01X463210Y-164731D02*
G01X463210Y-162951D01*
G01X463480Y-162761D01*
G01X465370D01*
G01X465570Y-162951D01*
G01Y-164731D01*
G01X465370Y-164921D01*
G01X463480D01*
G01X463210Y-164731D01*
G37*
G01X463210Y-164731D02*
G01X463210Y-162951D01*
G01X463480Y-162761D01*
G01X465370D01*
G01X465570Y-162951D01*
G01Y-164731D01*
G01X465370Y-164921D01*
G01X463480D01*
G01X463210Y-164731D01*
G36*
G01X459430Y-164731D02*
G01X459430Y-162951D01*
G01X459630Y-162761D01*
G01X461520D01*
G01X461790Y-162951D01*
G01Y-164731D01*
G01X461520Y-164921D01*
G01X459630D01*
G01X459430Y-164731D01*
G37*
G01X459430Y-164731D02*
G01X459430Y-162951D01*
G01X459630Y-162761D01*
G01X461520D01*
G01X461790Y-162951D01*
G01Y-164731D01*
G01X461520Y-164921D01*
G01X459630D01*
G01X459430Y-164731D01*
G36*
G01X463210Y-38613D02*
G01X463210Y-36833D01*
G01X463480Y-36643D01*
G01X465370D01*
G01X465570Y-36833D01*
G01Y-38613D01*
G01X465370Y-38803D01*
G01X463480D01*
G01X463210Y-38613D01*
G37*
G01X463210Y-38613D02*
G01X463210Y-36833D01*
G01X463480Y-36643D01*
G01X465370D01*
G01X465570Y-36833D01*
G01Y-38613D01*
G01X465370Y-38803D01*
G01X463480D01*
G01X463210Y-38613D01*
G36*
G01X459430Y-38613D02*
G01X459430Y-36833D01*
G01X459630Y-36643D01*
G01X461520D01*
G01X461790Y-36833D01*
G01Y-38613D01*
G01X461520Y-38803D01*
G01X459630D01*
G01X459430Y-38613D01*
G37*
G01X459430Y-38613D02*
G01X459430Y-36833D01*
G01X459630Y-36643D01*
G01X461520D01*
G01X461790Y-36833D01*
G01Y-38613D01*
G01X461520Y-38803D01*
G01X459630D01*
G01X459430Y-38613D01*
G36*
G01X463210Y-63837D02*
G01X463210Y-62057D01*
G01X463480Y-61867D01*
G01X465370D01*
G01X465570Y-62057D01*
G01Y-63837D01*
G01X465370Y-64027D01*
G01X463480D01*
G01X463210Y-63837D01*
G37*
G01X463210Y-63837D02*
G01X463210Y-62057D01*
G01X463480Y-61867D01*
G01X465370D01*
G01X465570Y-62057D01*
G01Y-63837D01*
G01X465370Y-64027D01*
G01X463480D01*
G01X463210Y-63837D01*
G36*
G01X459430Y-63837D02*
G01X459430Y-62057D01*
G01X459630Y-61867D01*
G01X461520D01*
G01X461790Y-62057D01*
G01Y-63837D01*
G01X461520Y-64027D01*
G01X459630D01*
G01X459430Y-63837D01*
G37*
G01X459430Y-63837D02*
G01X459430Y-62057D01*
G01X459630Y-61867D01*
G01X461520D01*
G01X461790Y-62057D01*
G01Y-63837D01*
G01X461520Y-64027D01*
G01X459630D01*
G01X459430Y-63837D01*
G36*
G01X463210Y-89060D02*
G01X463210Y-87280D01*
G01X463480Y-87090D01*
G01X465370D01*
G01X465570Y-87280D01*
G01Y-89060D01*
G01X465370Y-89250D01*
G01X463480D01*
G01X463210Y-89060D01*
G37*
G01X463210Y-89060D02*
G01X463210Y-87280D01*
G01X463480Y-87090D01*
G01X465370D01*
G01X465570Y-87280D01*
G01Y-89060D01*
G01X465370Y-89250D01*
G01X463480D01*
G01X463210Y-89060D01*
G36*
G01X459430Y-89060D02*
G01X459430Y-87280D01*
G01X459630Y-87090D01*
G01X461520D01*
G01X461790Y-87280D01*
G01Y-89060D01*
G01X461520Y-89250D01*
G01X459630D01*
G01X459430Y-89060D01*
G37*
G01X459430Y-89060D02*
G01X459430Y-87280D01*
G01X459630Y-87090D01*
G01X461520D01*
G01X461790Y-87280D01*
G01Y-89060D01*
G01X461520Y-89250D01*
G01X459630D01*
G01X459430Y-89060D01*
G36*
G01X463210Y-114284D02*
G01X463210Y-112504D01*
G01X463480Y-112314D01*
G01X465370D01*
G01X465570Y-112504D01*
G01Y-114284D01*
G01X465370Y-114474D01*
G01X463480D01*
G01X463210Y-114284D01*
G37*
G01X463210Y-114284D02*
G01X463210Y-112504D01*
G01X463480Y-112314D01*
G01X465370D01*
G01X465570Y-112504D01*
G01Y-114284D01*
G01X465370Y-114474D01*
G01X463480D01*
G01X463210Y-114284D01*
G36*
G01X459430Y-114284D02*
G01X459430Y-112504D01*
G01X459630Y-112314D01*
G01X461520D01*
G01X461790Y-112504D01*
G01Y-114284D01*
G01X461520Y-114474D01*
G01X459630D01*
G01X459430Y-114284D01*
G37*
G01X459430Y-114284D02*
G01X459430Y-112504D01*
G01X459630Y-112314D01*
G01X461520D01*
G01X461790Y-112504D01*
G01Y-114284D01*
G01X461520Y-114474D01*
G01X459630D01*
G01X459430Y-114284D01*
G36*
G01X463210Y-215177D02*
G01X463210Y-213397D01*
G01X463480Y-213207D01*
G01X465370D01*
G01X465570Y-213397D01*
G01Y-215177D01*
G01X465370Y-215367D01*
G01X463480D01*
G01X463210Y-215177D01*
G37*
G01X463210Y-215177D02*
G01X463210Y-213397D01*
G01X463480Y-213207D01*
G01X465370D01*
G01X465570Y-213397D01*
G01Y-215177D01*
G01X465370Y-215367D01*
G01X463480D01*
G01X463210Y-215177D01*
G36*
G01X459430Y-215177D02*
G01X459430Y-213397D01*
G01X459630Y-213207D01*
G01X461520D01*
G01X461790Y-213397D01*
G01Y-215177D01*
G01X461520Y-215367D01*
G01X459630D01*
G01X459430Y-215177D01*
G37*
G01X459430Y-215177D02*
G01X459430Y-213397D01*
G01X459630Y-213207D01*
G01X461520D01*
G01X461790Y-213397D01*
G01Y-215177D01*
G01X461520Y-215367D01*
G01X459630D01*
G01X459430Y-215177D01*
G36*
G01X463210Y-189954D02*
G01X463210Y-188174D01*
G01X463480Y-187984D01*
G01X465370D01*
G01X465570Y-188174D01*
G01Y-189954D01*
G01X465370Y-190144D01*
G01X463480D01*
G01X463210Y-189954D01*
G37*
G01X463210Y-189954D02*
G01X463210Y-188174D01*
G01X463480Y-187984D01*
G01X465370D01*
G01X465570Y-188174D01*
G01Y-189954D01*
G01X465370Y-190144D01*
G01X463480D01*
G01X463210Y-189954D01*
G36*
G01X459430Y-189954D02*
G01X459430Y-188174D01*
G01X459630Y-187984D01*
G01X461520D01*
G01X461790Y-188174D01*
G01Y-189954D01*
G01X461520Y-190144D01*
G01X459630D01*
G01X459430Y-189954D01*
G37*
G01X459430Y-189954D02*
G01X459430Y-188174D01*
G01X459630Y-187984D01*
G01X461520D01*
G01X461790Y-188174D01*
G01Y-189954D01*
G01X461520Y-190144D01*
G01X459630D01*
G01X459430Y-189954D01*
G04 PolygonModel End*

G04 Pad Start*
G54D11*
G01X6450Y-230272D03*
G01X6450Y-223272D03*
G01X-6450Y-223272D03*
G01X-6450Y-230272D03*
G01X6450Y-205075D03*
G01X6450Y-198075D03*
G01X-6450Y-198075D03*
G01X-6450Y-205075D03*
G01X6450Y-179878D03*
G01X6450Y-172878D03*
G01X-6450Y-172878D03*
G01X-6450Y-179878D03*
G01X6450Y-154681D03*
G01X6450Y-147681D03*
G01X-6450Y-147681D03*
G01X-6450Y-154681D03*
G01X6450Y-129484D03*
G01X6450Y-122484D03*
G01X-6450Y-122484D03*
G01X-6450Y-129484D03*
G01X6450Y-104287D03*
G01X6450Y-97287D03*
G01X-6450Y-97287D03*
G01X-6450Y-104287D03*
G01X6450Y-79091D03*
G01X6450Y-72091D03*
G01X-6450Y-72091D03*
G01X-6450Y-79091D03*
G01X6450Y-53894D03*
G01X6450Y-46894D03*
G01X-6450Y-46894D03*
G01X-6450Y-53894D03*
G01X6450Y-28697D03*
G01X6450Y-21697D03*
G01X-6450Y-21697D03*
G01X-6450Y-28697D03*
G01X6450Y-3500D03*
G01X6450Y3500D03*
G01X-6450Y3500D03*
G01X-6450Y-3500D03*
G01X20715Y28697D03*
G01X20715Y21697D03*
G01X33615Y21697D03*
G01X33615Y28697D03*
G01X20715Y3500D03*
G01X20715Y-3500D03*
G01X33615Y-3500D03*
G01X33615Y3500D03*
G01X20715Y-21697D03*
G01X20715Y-28697D03*
G01X33615Y-28697D03*
G01X33615Y-21697D03*
G01X20715Y-46894D03*
G01X20715Y-53894D03*
G01X33615Y-53894D03*
G01X33615Y-46894D03*
G01X20715Y-72091D03*
G01X20715Y-79091D03*
G01X33615Y-79091D03*
G01X33615Y-72091D03*
G01X20715Y-97287D03*
G01X20715Y-104287D03*
G01X33615Y-104287D03*
G01X33615Y-97287D03*
G01X20715Y-122484D03*
G01X20715Y-129484D03*
G01X33615Y-129484D03*
G01X33615Y-122484D03*
G01X20715Y-147681D03*
G01X20715Y-154681D03*
G01X33615Y-154681D03*
G01X33615Y-147681D03*
G01X20715Y-172878D03*
G01X20715Y-179878D03*
G01X33615Y-179878D03*
G01X33615Y-172878D03*
G01X20715Y-198075D03*
G01X20715Y-205075D03*
G01X33615Y-205075D03*
G01X33615Y-198075D03*
G01X20715Y-223272D03*
G01X20715Y-230272D03*
G01X33615Y-230272D03*
G01X33615Y-223272D03*
G01X20715Y-248468D03*
G01X20715Y-255468D03*
G01X33615Y-255468D03*
G01X33615Y-248468D03*
G01X20715Y-273665D03*
G01X20715Y-280665D03*
G01X33615Y-280665D03*
G01X33615Y-273665D03*
G01X20715Y-298862D03*
G01X20715Y-305862D03*
G01X33615Y-305862D03*
G01X33615Y-298862D03*
G01X60781Y-305862D03*
G01X60781Y-298862D03*
G01X47881Y-298862D03*
G01X47881Y-305862D03*
G01X60781Y-280665D03*
G01X60781Y-273665D03*
G01X47881Y-273665D03*
G01X47881Y-280665D03*
G01X60781Y-255468D03*
G01X60781Y-248468D03*
G01X47881Y-248468D03*
G01X47881Y-255468D03*
G01X60781Y-230272D03*
G01X60781Y-223272D03*
G01X47881Y-223272D03*
G01X47881Y-230272D03*
G01X60781Y-205075D03*
G01X60781Y-198075D03*
G01X47881Y-198075D03*
G01X47881Y-205075D03*
G01X60781Y-179878D03*
G01X60781Y-172878D03*
G01X47881Y-172878D03*
G01X47881Y-179878D03*
G01X60781Y-154681D03*
G01X60781Y-147681D03*
G01X47881Y-147681D03*
G01X47881Y-154681D03*
G01X60781Y-129484D03*
G01X60781Y-122484D03*
G01X47881Y-122484D03*
G01X47881Y-129484D03*
G01X60781Y-104287D03*
G01X60781Y-97287D03*
G01X47881Y-97287D03*
G01X47881Y-104287D03*
G01X60781Y-79091D03*
G01X60781Y-72091D03*
G01X47881Y-72091D03*
G01X47881Y-79091D03*
G01X60781Y-53894D03*
G01X60781Y-46894D03*
G01X47881Y-46894D03*
G01X47881Y-53894D03*
G01X60781Y-28697D03*
G01X60781Y-21697D03*
G01X47881Y-21697D03*
G01X47881Y-28697D03*
G01X60781Y-3500D03*
G01X60781Y3500D03*
G01X47881Y3500D03*
G01X47881Y-3500D03*
G01X60781Y21697D03*
G01X60781Y28697D03*
G01X47881Y28697D03*
G01X47881Y21697D03*
G01X60781Y46894D03*
G01X60781Y53894D03*
G01X47881Y53894D03*
G01X47881Y46894D03*
G01X75046Y53895D03*
G01X75046Y46895D03*
G01X87946Y46895D03*
G01X87946Y53895D03*
G01X75046Y28698D03*
G01X75046Y21698D03*
G01X87946Y21698D03*
G01X87946Y28698D03*
G01X75046Y3501D03*
G01X75046Y-3499D03*
G01X87946Y-3499D03*
G01X87946Y3501D03*
G01X75046Y-21696D03*
G01X75046Y-28696D03*
G01X87946Y-28696D03*
G01X87946Y-21696D03*
G01X75046Y-46893D03*
G01X75046Y-53893D03*
G01X87946Y-53893D03*
G01X87946Y-46893D03*
G01X75046Y-72090D03*
G01X75046Y-79090D03*
G01X87946Y-79090D03*
G01X87946Y-72090D03*
G01X75046Y-97287D03*
G01X75046Y-104287D03*
G01X87946Y-104287D03*
G01X87946Y-97287D03*
G01X75046Y-122484D03*
G01X75046Y-129484D03*
G01X87946Y-129484D03*
G01X87946Y-122484D03*
G01X75046Y-147680D03*
G01X75046Y-154680D03*
G01X87946Y-154680D03*
G01X87946Y-147680D03*
G01X75046Y-172877D03*
G01X75046Y-179877D03*
G01X87946Y-179877D03*
G01X87946Y-172877D03*
G01X75046Y-198074D03*
G01X75046Y-205074D03*
G01X87946Y-205074D03*
G01X87946Y-198074D03*
G01X75046Y-223271D03*
G01X75046Y-230271D03*
G01X87946Y-230271D03*
G01X87946Y-223271D03*
G01X75046Y-248468D03*
G01X75046Y-255468D03*
G01X87946Y-255468D03*
G01X87946Y-248468D03*
G01X75046Y-273665D03*
G01X75046Y-280665D03*
G01X87946Y-280665D03*
G01X87946Y-273665D03*
G01X75046Y-298862D03*
G01X75046Y-305862D03*
G01X87946Y-305862D03*
G01X87946Y-298862D03*
G01X75046Y-324059D03*
G01X75046Y-331059D03*
G01X87946Y-331059D03*
G01X87946Y-324059D03*
G01X115111Y-331059D03*
G01X115111Y-324059D03*
G01X102211Y-324059D03*
G01X102211Y-331059D03*
G01X115111Y-305862D03*
G01X115111Y-298862D03*
G01X102211Y-298862D03*
G01X102211Y-305862D03*
G01X115111Y-280665D03*
G01X115111Y-273665D03*
G01X102211Y-273665D03*
G01X102211Y-280665D03*
G01X115111Y-255469D03*
G01X115111Y-248469D03*
G01X102211Y-248469D03*
G01X102211Y-255469D03*
G01X115111Y-230272D03*
G01X115111Y-223272D03*
G01X102211Y-223272D03*
G01X102211Y-230272D03*
G01X115111Y-205075D03*
G01X115111Y-198075D03*
G01X102211Y-198075D03*
G01X102211Y-205075D03*
G01X115111Y-154681D03*
G01X115111Y-147681D03*
G01X102211Y-147681D03*
G01X102211Y-154681D03*
G01X115111Y-129484D03*
G01X115111Y-122484D03*
G01X102211Y-122484D03*
G01X102211Y-129484D03*
G01X115111Y-104287D03*
G01X115111Y-97287D03*
G01X102211Y-97287D03*
G01X102211Y-104287D03*
G01X115111Y-53894D03*
G01X115111Y-46894D03*
G01X102211Y-46894D03*
G01X102211Y-53894D03*
G01X115111Y-28697D03*
G01X115111Y-21697D03*
G01X102211Y-21697D03*
G01X102211Y-28697D03*
G01X115111Y-3500D03*
G01X115111Y3500D03*
G01X102211Y3500D03*
G01X102211Y-3500D03*
G01X115111Y21697D03*
G01X115111Y28697D03*
G01X102211Y28697D03*
G01X102211Y21697D03*
G01X115111Y46894D03*
G01X115111Y53894D03*
G01X102211Y53894D03*
G01X102211Y46894D03*
G01X129377Y53894D03*
G01X129377Y46894D03*
G01X142277Y46894D03*
G01X142277Y53894D03*
G01X129377Y28697D03*
G01X129377Y21697D03*
G01X142277Y21697D03*
G01X142277Y28697D03*
G01X129377Y3500D03*
G01X129377Y-3500D03*
G01X142277Y-3500D03*
G01X142277Y3500D03*
G01X129377Y-21697D03*
G01X129377Y-28697D03*
G01X142277Y-28697D03*
G01X142277Y-21697D03*
G01X129377Y-46894D03*
G01X129377Y-53894D03*
G01X142277Y-53894D03*
G01X142277Y-46894D03*
G01X129377Y-72091D03*
G01X129377Y-79091D03*
G01X142277Y-79091D03*
G01X142277Y-72091D03*
G01X129377Y-97287D03*
G01X129377Y-104287D03*
G01X142277Y-104287D03*
G01X142277Y-97287D03*
G01X129377Y-122484D03*
G01X129377Y-129484D03*
G01X142277Y-129484D03*
G01X142277Y-122484D03*
G01X129377Y-147681D03*
G01X129377Y-154681D03*
G01X142277Y-154681D03*
G01X142277Y-147681D03*
G01X129377Y-172878D03*
G01X129377Y-179878D03*
G01X142277Y-179878D03*
G01X142277Y-172878D03*
G01X129377Y-198075D03*
G01X129377Y-205075D03*
G01X142277Y-205075D03*
G01X142277Y-198075D03*
G01X129377Y-223272D03*
G01X129377Y-230272D03*
G01X142277Y-230272D03*
G01X142277Y-223272D03*
G01X129377Y-248469D03*
G01X129377Y-255469D03*
G01X142277Y-255469D03*
G01X142277Y-248469D03*
G01X129377Y-273665D03*
G01X129377Y-280665D03*
G01X142277Y-280665D03*
G01X142277Y-273665D03*
G01X129377Y-298862D03*
G01X129377Y-305862D03*
G01X142277Y-305862D03*
G01X142277Y-298862D03*
G01X169942Y-331509D03*
G01X169942Y-324509D03*
G01X157042Y-324509D03*
G01X157042Y-331509D03*
G01X169942Y-306312D03*
G01X169942Y-299312D03*
G01X157042Y-299312D03*
G01X157042Y-306312D03*
G01X169942Y-281115D03*
G01X169942Y-274115D03*
G01X157042Y-274115D03*
G01X157042Y-281115D03*
G01X169942Y-255918D03*
G01X169942Y-248918D03*
G01X157042Y-248918D03*
G01X157042Y-255918D03*
G01X169942Y-230722D03*
G01X169942Y-223722D03*
G01X157042Y-223722D03*
G01X157042Y-230722D03*
G01X169942Y-205525D03*
G01X169942Y-198525D03*
G01X157042Y-198525D03*
G01X157042Y-205525D03*
G01X169942Y-180328D03*
G01X169942Y-173328D03*
G01X157042Y-173328D03*
G01X157042Y-180328D03*
G01X169942Y-155131D03*
G01X169942Y-148131D03*
G01X157042Y-148131D03*
G01X157042Y-155131D03*
G01X169942Y-129934D03*
G01X169942Y-122934D03*
G01X157042Y-122934D03*
G01X157042Y-129934D03*
G01X169942Y-104737D03*
G01X169942Y-97737D03*
G01X157042Y-97737D03*
G01X157042Y-104737D03*
G01X169942Y-79541D03*
G01X169942Y-72541D03*
G01X157042Y-72541D03*
G01X157042Y-79541D03*
G01X169942Y-54344D03*
G01X169942Y-47344D03*
G01X157042Y-47344D03*
G01X157042Y-54344D03*
G01X169942Y-29147D03*
G01X169942Y-22147D03*
G01X157042Y-22147D03*
G01X157042Y-29147D03*
G01X169942Y-3950D03*
G01X169942Y3050D03*
G01X157042Y3050D03*
G01X157042Y-3950D03*
G01X169942Y21247D03*
G01X169942Y28247D03*
G01X157042Y28247D03*
G01X157042Y21247D03*
G01X169942Y46444D03*
G01X169942Y53444D03*
G01X157042Y53444D03*
G01X157042Y46444D03*
G01X184207Y53444D03*
G01X184207Y46444D03*
G01X197107Y46444D03*
G01X197107Y53444D03*
G01X184207Y28247D03*
G01X184207Y21247D03*
G01X197107Y21247D03*
G01X197107Y28247D03*
G01X184207Y3050D03*
G01X184207Y-3950D03*
G01X197107Y-3950D03*
G01X197107Y3050D03*
G01X184207Y-22147D03*
G01X184207Y-29147D03*
G01X197107Y-29147D03*
G01X197107Y-22147D03*
G01X184207Y-47344D03*
G01X184207Y-54344D03*
G01X197107Y-54344D03*
G01X197107Y-47344D03*
G01X184207Y-72541D03*
G01X184207Y-79541D03*
G01X197107Y-79541D03*
G01X197107Y-72541D03*
G01X184207Y-97737D03*
G01X184207Y-104737D03*
G01X197107Y-104737D03*
G01X197107Y-97737D03*
G01X184207Y-122934D03*
G01X184207Y-129934D03*
G01X197107Y-129934D03*
G01X197107Y-122934D03*
G01X184207Y-148131D03*
G01X184207Y-155131D03*
G01X197107Y-155131D03*
G01X197107Y-148131D03*
G01X184207Y-173328D03*
G01X184207Y-180328D03*
G01X197107Y-180328D03*
G01X197107Y-173328D03*
G01X184207Y-198525D03*
G01X184207Y-205525D03*
G01X197107Y-205525D03*
G01X197107Y-198525D03*
G01X184207Y-248918D03*
G01X184207Y-255918D03*
G01X197107Y-255918D03*
G01X197107Y-248918D03*
G01X184207Y-274115D03*
G01X184207Y-281115D03*
G01X197107Y-281115D03*
G01X197107Y-274115D03*
G01X184207Y-299312D03*
G01X184207Y-306312D03*
G01X197107Y-306312D03*
G01X197107Y-299312D03*
G01X184207Y-324509D03*
G01X184207Y-331509D03*
G01X197107Y-331509D03*
G01X197107Y-324509D03*
G01X224273Y-331509D03*
G01X224273Y-324509D03*
G01X211373Y-324509D03*
G01X211373Y-331509D03*
G01X224273Y-306312D03*
G01X224273Y-299312D03*
G01X211373Y-299312D03*
G01X211373Y-306312D03*
G01X224273Y-281115D03*
G01X224273Y-274115D03*
G01X211373Y-274115D03*
G01X211373Y-281115D03*
G01X224273Y-255918D03*
G01X224273Y-248918D03*
G01X211373Y-248918D03*
G01X211373Y-255918D03*
G01X224273Y-230722D03*
G01X224273Y-223722D03*
G01X211373Y-223722D03*
G01X211373Y-230722D03*
G01X224273Y-205525D03*
G01X224273Y-198525D03*
G01X211373Y-198525D03*
G01X211373Y-205525D03*
G01X224273Y-180328D03*
G01X224273Y-173328D03*
G01X211373Y-173328D03*
G01X211373Y-180328D03*
G01X224273Y-155131D03*
G01X224273Y-148131D03*
G01X211373Y-148131D03*
G01X211373Y-155131D03*
G01X224273Y-129934D03*
G01X224273Y-122934D03*
G01X211373Y-122934D03*
G01X211373Y-129934D03*
G01X224273Y-104737D03*
G01X224273Y-97737D03*
G01X211373Y-97737D03*
G01X211373Y-104737D03*
G01X224273Y-79541D03*
G01X224273Y-72541D03*
G01X211373Y-72541D03*
G01X211373Y-79541D03*
G01X224273Y-54344D03*
G01X224273Y-47344D03*
G01X211373Y-47344D03*
G01X211373Y-54344D03*
G01X224273Y-29147D03*
G01X224273Y-22147D03*
G01X211373Y-22147D03*
G01X211373Y-29147D03*
G01X224273Y-3950D03*
G01X224273Y3050D03*
G01X211373Y3050D03*
G01X211373Y-3950D03*
G01X224273Y21247D03*
G01X224273Y28247D03*
G01X211373Y28247D03*
G01X211373Y21247D03*
G01X224273Y46444D03*
G01X224273Y53444D03*
G01X211373Y53444D03*
G01X211373Y46444D03*
G01X238538Y53444D03*
G01X238538Y46444D03*
G01X251438Y46444D03*
G01X251438Y53444D03*
G01X238538Y28247D03*
G01X238538Y21247D03*
G01X251438Y21247D03*
G01X251438Y28247D03*
G01X238538Y3050D03*
G01X238538Y-3950D03*
G01X251438Y-3950D03*
G01X251438Y3050D03*
G01X238538Y-22147D03*
G01X238538Y-29147D03*
G01X251438Y-29147D03*
G01X251438Y-22147D03*
G01X238538Y-47344D03*
G01X238538Y-54344D03*
G01X251438Y-54344D03*
G01X251438Y-47344D03*
G01X238538Y-72541D03*
G01X238538Y-79541D03*
G01X251438Y-79541D03*
G01X251438Y-72541D03*
G01X238538Y-97737D03*
G01X238538Y-104737D03*
G01X251438Y-104737D03*
G01X251438Y-97737D03*
G01X238538Y-122934D03*
G01X238538Y-129934D03*
G01X251438Y-129934D03*
G01X251438Y-122934D03*
G01X238538Y-148131D03*
G01X238538Y-155131D03*
G01X251438Y-155131D03*
G01X251438Y-148131D03*
G01X238538Y-173328D03*
G01X238538Y-180328D03*
G01X251438Y-180328D03*
G01X251438Y-173328D03*
G01X238538Y-198525D03*
G01X238538Y-205525D03*
G01X251438Y-205525D03*
G01X251438Y-198525D03*
G01X238538Y-223722D03*
G01X238538Y-230722D03*
G01X251438Y-230722D03*
G01X251438Y-223722D03*
G01X238538Y-248918D03*
G01X238538Y-255918D03*
G01X251438Y-255918D03*
G01X251438Y-248918D03*
G01X238538Y-274115D03*
G01X238538Y-281115D03*
G01X251438Y-281115D03*
G01X251438Y-274115D03*
G01X238538Y-299312D03*
G01X238538Y-306312D03*
G01X251438Y-306312D03*
G01X251438Y-299312D03*
G01X238538Y-324509D03*
G01X238538Y-331509D03*
G01X251438Y-331509D03*
G01X251438Y-324509D03*
G01X277604Y-330609D03*
G01X277604Y-323609D03*
G01X264704Y-323609D03*
G01X264704Y-330609D03*
G01X277604Y-305412D03*
G01X277604Y-298412D03*
G01X264704Y-298412D03*
G01X264704Y-305412D03*
G01X277604Y-280215D03*
G01X277604Y-273215D03*
G01X264704Y-273215D03*
G01X264704Y-280215D03*
G01X277604Y-255019D03*
G01X277604Y-248019D03*
G01X264704Y-248019D03*
G01X264704Y-255019D03*
G01X277604Y-229822D03*
G01X277604Y-222822D03*
G01X264704Y-222822D03*
G01X264704Y-229822D03*
G01X277604Y-204625D03*
G01X277604Y-197625D03*
G01X264704Y-197625D03*
G01X264704Y-204625D03*
G01X277604Y-179428D03*
G01X277604Y-172428D03*
G01X264704Y-172428D03*
G01X264704Y-179428D03*
G01X277604Y-154231D03*
G01X277604Y-147231D03*
G01X264704Y-147231D03*
G01X264704Y-154231D03*
G01X277604Y-129034D03*
G01X277604Y-122034D03*
G01X264704Y-122034D03*
G01X264704Y-129034D03*
G01X277604Y-103837D03*
G01X277604Y-96837D03*
G01X264704Y-96837D03*
G01X264704Y-103837D03*
G01X277604Y-78641D03*
G01X277604Y-71641D03*
G01X264704Y-71641D03*
G01X264704Y-78641D03*
G01X277604Y-53444D03*
G01X277604Y-46444D03*
G01X264704Y-46444D03*
G01X264704Y-53444D03*
G01X277604Y-28247D03*
G01X277604Y-21247D03*
G01X264704Y-21247D03*
G01X264704Y-28247D03*
G01X277604Y-3050D03*
G01X277604Y3950D03*
G01X264704Y3950D03*
G01X264704Y-3050D03*
G01X277604Y22147D03*
G01X277604Y29147D03*
G01X264704Y29147D03*
G01X264704Y22147D03*
G01X277604Y47344D03*
G01X277604Y54344D03*
G01X264704Y54344D03*
G01X264704Y47344D03*
G01X292869Y53444D03*
G01X292869Y46444D03*
G01X305769Y46444D03*
G01X305769Y53444D03*
G01X292869Y28247D03*
G01X292869Y21247D03*
G01X305769Y21247D03*
G01X305769Y28247D03*
G01X292869Y3050D03*
G01X292869Y-3950D03*
G01X305769Y-3950D03*
G01X305769Y3050D03*
G01X292869Y-22147D03*
G01X292869Y-29147D03*
G01X305769Y-29147D03*
G01X305769Y-22147D03*
G01X292869Y-47344D03*
G01X292869Y-54344D03*
G01X305769Y-54344D03*
G01X305769Y-47344D03*
G01X292869Y-72541D03*
G01X292869Y-79541D03*
G01X305769Y-79541D03*
G01X305769Y-72541D03*
G01X292869Y-97737D03*
G01X292869Y-104737D03*
G01X305769Y-104737D03*
G01X305769Y-97737D03*
G01X292869Y-122934D03*
G01X292869Y-129934D03*
G01X305769Y-129934D03*
G01X305769Y-122934D03*
G01X292869Y-148131D03*
G01X292869Y-155131D03*
G01X305769Y-155131D03*
G01X305769Y-148131D03*
G01X292869Y-173328D03*
G01X292869Y-180328D03*
G01X305769Y-180328D03*
G01X305769Y-173328D03*
G01X292869Y-198525D03*
G01X292869Y-205525D03*
G01X305769Y-205525D03*
G01X305769Y-198525D03*
G01X292869Y-223722D03*
G01X292869Y-230722D03*
G01X305769Y-230722D03*
G01X305769Y-223722D03*
G01X292869Y-248918D03*
G01X292869Y-255918D03*
G01X305769Y-255918D03*
G01X305769Y-248918D03*
G01X292869Y-274115D03*
G01X292869Y-281115D03*
G01X305769Y-281115D03*
G01X305769Y-274115D03*
G01X292869Y-299312D03*
G01X292869Y-306312D03*
G01X305769Y-306312D03*
G01X305769Y-299312D03*
G01X292869Y-324509D03*
G01X292869Y-331509D03*
G01X305769Y-331509D03*
G01X305769Y-324509D03*
G01X331934Y-330609D03*
G01X331934Y-323609D03*
G01X319034Y-323609D03*
G01X319034Y-330609D03*
G01X331934Y-305412D03*
G01X331934Y-298412D03*
G01X319034Y-298412D03*
G01X319034Y-305412D03*
G01X331934Y-280215D03*
G01X331934Y-273215D03*
G01X319034Y-273215D03*
G01X319034Y-280215D03*
G01X331934Y-255019D03*
G01X331934Y-248019D03*
G01X319034Y-248019D03*
G01X319034Y-255019D03*
G01X331934Y-229822D03*
G01X331934Y-222822D03*
G01X319034Y-222822D03*
G01X319034Y-229822D03*
G01X331934Y-204625D03*
G01X331934Y-197625D03*
G01X319034Y-197625D03*
G01X319034Y-204625D03*
G01X331934Y-179428D03*
G01X331934Y-172428D03*
G01X319034Y-172428D03*
G01X319034Y-179428D03*
G01X331934Y-154231D03*
G01X331934Y-147231D03*
G01X319034Y-147231D03*
G01X319034Y-154231D03*
G01X331934Y-129034D03*
G01X331934Y-122034D03*
G01X319034Y-122034D03*
G01X319034Y-129034D03*
G01X331934Y-103837D03*
G01X331934Y-96837D03*
G01X319034Y-96837D03*
G01X319034Y-103837D03*
G01X331934Y-78641D03*
G01X331934Y-71641D03*
G01X319034Y-71641D03*
G01X319034Y-78641D03*
G01X331934Y-53444D03*
G01X331934Y-46444D03*
G01X319034Y-46444D03*
G01X319034Y-53444D03*
G01X331934Y-28247D03*
G01X331934Y-21247D03*
G01X319034Y-21247D03*
G01X319034Y-28247D03*
G01X331934Y-3050D03*
G01X331934Y3950D03*
G01X319034Y3950D03*
G01X319034Y-3050D03*
G01X331934Y22147D03*
G01X331934Y29147D03*
G01X319034Y29147D03*
G01X319034Y22147D03*
G01X331934Y47344D03*
G01X331934Y54344D03*
G01X319034Y54344D03*
G01X319034Y47344D03*
G01X347200Y53444D03*
G01X347200Y46444D03*
G01X360100Y46444D03*
G01X360100Y53444D03*
G01X347200Y28247D03*
G01X347200Y21247D03*
G01X360100Y21247D03*
G01X360100Y28247D03*
G01X347200Y3050D03*
G01X347200Y-3950D03*
G01X360100Y-3950D03*
G01X360100Y3050D03*
G01X347200Y-22147D03*
G01X347200Y-29147D03*
G01X360100Y-29147D03*
G01X360100Y-22147D03*
G01X347200Y-47344D03*
G01X347200Y-54344D03*
G01X360100Y-54344D03*
G01X360100Y-47344D03*
G01X347200Y-72541D03*
G01X347200Y-79541D03*
G01X360100Y-79541D03*
G01X360100Y-72541D03*
G01X347200Y-97737D03*
G01X347200Y-104737D03*
G01X360100Y-104737D03*
G01X360100Y-97737D03*
G01X347200Y-122934D03*
G01X347200Y-129934D03*
G01X360100Y-129934D03*
G01X360100Y-122934D03*
G01X347200Y-148131D03*
G01X347200Y-155131D03*
G01X360100Y-155131D03*
G01X360100Y-148131D03*
G01X347200Y-173328D03*
G01X347200Y-180328D03*
G01X360100Y-180328D03*
G01X360100Y-173328D03*
G01X347200Y-198525D03*
G01X347200Y-205525D03*
G01X360100Y-205525D03*
G01X360100Y-198525D03*
G01X347200Y-223722D03*
G01X347200Y-230722D03*
G01X360100Y-230722D03*
G01X360100Y-223722D03*
G01X347200Y-248918D03*
G01X347200Y-255918D03*
G01X360100Y-255918D03*
G01X360100Y-248918D03*
G01X347200Y-274115D03*
G01X347200Y-281115D03*
G01X360100Y-281115D03*
G01X360100Y-274115D03*
G01X347200Y-299312D03*
G01X347200Y-306312D03*
G01X360100Y-306312D03*
G01X360100Y-299312D03*
G01X347200Y-324509D03*
G01X347200Y-331509D03*
G01X360100Y-331509D03*
G01X360100Y-324509D03*
G01X386265Y-330609D03*
G01X386265Y-323609D03*
G01X373365Y-323609D03*
G01X373365Y-330609D03*
G01X386265Y-305412D03*
G01X386265Y-298412D03*
G01X373365Y-298412D03*
G01X373365Y-305412D03*
G01X386265Y-280215D03*
G01X386265Y-273215D03*
G01X373365Y-273215D03*
G01X373365Y-280215D03*
G01X386265Y-255019D03*
G01X386265Y-248019D03*
G01X373365Y-248019D03*
G01X373365Y-255019D03*
G01X386265Y-229822D03*
G01X386265Y-222822D03*
G01X373365Y-222822D03*
G01X373365Y-229822D03*
G01X386265Y-204625D03*
G01X386265Y-197625D03*
G01X373365Y-197625D03*
G01X373365Y-204625D03*
G01X386265Y-179428D03*
G01X386265Y-172428D03*
G01X373365Y-172428D03*
G01X373365Y-179428D03*
G01X386265Y-154231D03*
G01X386265Y-147231D03*
G01X373365Y-147231D03*
G01X373365Y-154231D03*
G01X386265Y-129034D03*
G01X386265Y-122034D03*
G01X373365Y-122034D03*
G01X373365Y-129034D03*
G01X386265Y-103837D03*
G01X386265Y-96837D03*
G01X373365Y-96837D03*
G01X373365Y-103837D03*
G01X386265Y-78641D03*
G01X386265Y-71641D03*
G01X373365Y-71641D03*
G01X373365Y-78641D03*
G01X386265Y-53444D03*
G01X386265Y-46444D03*
G01X373365Y-46444D03*
G01X373365Y-53444D03*
G01X386265Y-28247D03*
G01X386265Y-21247D03*
G01X373365Y-21247D03*
G01X373365Y-28247D03*
G01X386265Y-3050D03*
G01X386265Y3950D03*
G01X373365Y3950D03*
G01X373365Y-3050D03*
G01X386265Y22147D03*
G01X386265Y29147D03*
G01X373365Y29147D03*
G01X373365Y22147D03*
G01X386265Y47344D03*
G01X386265Y54344D03*
G01X373365Y54344D03*
G01X373365Y47344D03*
G01X401530Y53444D03*
G01X401530Y46444D03*
G01X414430Y46444D03*
G01X414430Y53444D03*
G01X401530Y28247D03*
G01X401530Y21247D03*
G01X414430Y21247D03*
G01X414430Y28247D03*
G01X401530Y3050D03*
G01X401530Y-3950D03*
G01X414430Y-3950D03*
G01X414430Y3050D03*
G01X401530Y-22147D03*
G01X401530Y-29147D03*
G01X414430Y-29147D03*
G01X414430Y-22147D03*
G01X401530Y-47344D03*
G01X401530Y-54344D03*
G01X414430Y-54344D03*
G01X414430Y-47344D03*
G01X401530Y-72541D03*
G01X401530Y-79541D03*
G01X414430Y-79541D03*
G01X414430Y-72541D03*
G01X401530Y-97737D03*
G01X401530Y-104737D03*
G01X414430Y-104737D03*
G01X414430Y-97737D03*
G01X401530Y-122934D03*
G01X401530Y-129934D03*
G01X414430Y-129934D03*
G01X414430Y-122934D03*
G01X401530Y-148131D03*
G01X401530Y-155131D03*
G01X414430Y-155131D03*
G01X414430Y-148131D03*
G01X401530Y-173328D03*
G01X401530Y-180328D03*
G01X414430Y-180328D03*
G01X414430Y-173328D03*
G01X401530Y-198525D03*
G01X401530Y-205525D03*
G01X414430Y-205525D03*
G01X414430Y-198525D03*
G01X401530Y-223722D03*
G01X401530Y-230722D03*
G01X414430Y-230722D03*
G01X414430Y-223722D03*
G01X401530Y-248918D03*
G01X401530Y-255918D03*
G01X414430Y-255918D03*
G01X414430Y-248918D03*
G01X401530Y-274115D03*
G01X401530Y-281115D03*
G01X414430Y-281115D03*
G01X414430Y-274115D03*
G01X401530Y-299312D03*
G01X401530Y-306312D03*
G01X414430Y-306312D03*
G01X414430Y-299312D03*
G01X115111Y-79091D03*
G01X115111Y-72091D03*
G01X102211Y-72091D03*
G01X102211Y-79091D03*
G01X129377Y-324059D03*
G01X129377Y-331059D03*
G01X142277Y-331059D03*
G01X142277Y-324059D03*
G01X441096Y-78866D03*
G01X441096Y-71866D03*
G01X428196Y-71866D03*
G01X428196Y-78866D03*
G01X441096Y-3275D03*
G01X441096Y3725D03*
G01X428196Y3725D03*
G01X428196Y-3275D03*
G01X441096Y-28472D03*
G01X441096Y-21472D03*
G01X428196Y-21472D03*
G01X428196Y-28472D03*
G01X441096Y-104062D03*
G01X441096Y-97062D03*
G01X428196Y-97062D03*
G01X428196Y-104062D03*
G01X441096Y-53669D03*
G01X441096Y-46669D03*
G01X428196Y-46669D03*
G01X428196Y-53669D03*
G01X441096Y21922D03*
G01X441096Y28922D03*
G01X428196Y28922D03*
G01X428196Y21922D03*
G01X441096Y-129259D03*
G01X441096Y-122259D03*
G01X428196Y-122259D03*
G01X428196Y-129259D03*
G01X441096Y-154456D03*
G01X441096Y-147456D03*
G01X428196Y-147456D03*
G01X428196Y-154456D03*
G01X441096Y-179653D03*
G01X441096Y-172653D03*
G01X428196Y-172653D03*
G01X428196Y-179653D03*
G01X441096Y-280440D03*
G01X441096Y-273440D03*
G01X428196Y-273440D03*
G01X428196Y-280440D03*
G01X441096Y-230047D03*
G01X441096Y-223047D03*
G01X428196Y-223047D03*
G01X428196Y-230047D03*
G01X441096Y-204850D03*
G01X441096Y-197850D03*
G01X428196Y-197850D03*
G01X428196Y-204850D03*
G01X441096Y-255243D03*
G01X441096Y-248243D03*
G01X428196Y-248243D03*
G01X428196Y-255243D03*
G01X441096Y-305637D03*
G01X441096Y-298637D03*
G01X428196Y-298637D03*
G01X428196Y-305637D03*
G01X456361Y-223947D03*
G01X456361Y-230947D03*
G01X469261Y-230947D03*
G01X469261Y-223947D03*
G01X456361Y-198750D03*
G01X456361Y-205750D03*
G01X469261Y-205750D03*
G01X469261Y-198750D03*
G01X456361Y-173553D03*
G01X456361Y-180553D03*
G01X469261Y-180553D03*
G01X469261Y-173553D03*
G01X456361Y-148356D03*
G01X456361Y-155356D03*
G01X469261Y-155356D03*
G01X469261Y-148356D03*
G01X456361Y-123159D03*
G01X456361Y-130159D03*
G01X469261Y-130159D03*
G01X469261Y-123159D03*
G01X456361Y-97962D03*
G01X456361Y-104962D03*
G01X469261Y-104962D03*
G01X469261Y-97962D03*
G01X456361Y-72766D03*
G01X456361Y-79766D03*
G01X469261Y-79766D03*
G01X469261Y-72766D03*
G01X456361Y-47569D03*
G01X456361Y-54569D03*
G01X469261Y-54569D03*
G01X469261Y-47569D03*
G01X456361Y-22372D03*
G01X456361Y-29372D03*
G01X469261Y-29372D03*
G01X469261Y-22372D03*
G01X456361Y2825D03*
G01X456361Y-4175D03*
G01X469261Y-4175D03*
G01X469261Y2825D03*
G01X115111Y-179878D03*
G01X115111Y-172878D03*
G01X102211Y-172878D03*
G01X102211Y-179878D03*
G01X184207Y-223722D03*
G01X184207Y-230722D03*
G01X197107Y-230722D03*
G01X197107Y-223722D03*
G04 Pad End*

M02*
